<svg width="51" height="67" viewBox="0 0 51 67" fill="none" xmlns="http://www.w3.org/2000/svg">
<g filter="url(#filter0_d)">
<path fill-rule="evenodd" clip-rule="evenodd" d="M25.6869 6H25.8445C37.3773 6.04318 46.7159 15.5623 46.7382 27.3073V27.3873C46.7067 42.1074 28.2084 64.0275 25.7709 64.059H25.7605C23.3192 64.0269 4.79324 41.3128 4.79324 27.3496C4.79324 15.5852 14.1404 6.04323 25.6869 6V6Z" fill="black" fill-opacity="0.01"/>
</g>
<mask id="mask0" mask-type="alpha" maskUnits="userSpaceOnUse" x="4" y="6" width="43" height="59">
<path fill-rule="evenodd" clip-rule="evenodd" d="M25.6869 6H25.8445C37.3773 6.04318 46.7159 15.5623 46.7382 27.3073V27.3873C46.7067 42.1074 28.2084 64.0275 25.7709 64.059H25.7605C23.3192 64.0269 4.79324 41.3128 4.79324 27.3496C4.79324 15.5852 14.1404 6.04323 25.6869 6V6Z" fill="white"/>
</mask>
<g mask="url(#mask0)">
<path fill-rule="evenodd" clip-rule="evenodd" d="M-1.92551 -0.704693H53.457V70.7636H-1.92551V-0.704693Z" fill="white"/>
</g>
<mask id="mask1" mask-type="alpha" maskUnits="userSpaceOnUse" x="9" y="10" width="34" height="34">
<path fill-rule="evenodd" clip-rule="evenodd" d="M26.0865 43.9583C35.1992 43.9583 42.5865 36.571 42.5865 27.4583C42.5865 18.3456 35.1992 10.9583 26.0865 10.9583C16.9738 10.9583 9.58649 18.3456 9.58649 27.4583C9.58649 36.571 16.9738 43.9583 26.0865 43.9583Z" fill="white"/>
</mask>
<g mask="url(#mask1)">
<path fill-rule="evenodd" clip-rule="evenodd" d="M3.91982 3.29163H49.2531V48.625H3.91982V3.29163Z" fill="#DE1A56"/>
</g>
<path d="M21.4489 23.176L23.0689 22.42V31H21.4489V23.176ZM28.0306 31.18C27.4626 31.18 26.9386 31.042 26.4586 30.766C25.9786 30.486 25.5886 30.032 25.2886 29.404C24.9886 28.776 24.8386 27.964 24.8386 26.968C24.8386 26.052 24.9946 25.252 25.3066 24.568C25.6186 23.88 26.0506 23.352 26.6026 22.984C27.1546 22.616 27.7826 22.432 28.4866 22.432C29.0186 22.432 29.4406 22.484 29.7526 22.588C30.0686 22.692 30.3306 22.844 30.5386 23.044L29.9506 24.196C29.8026 24.036 29.6006 23.92 29.3446 23.848C29.0886 23.776 28.8306 23.74 28.5706 23.74C28.1746 23.74 27.8206 23.862 27.5086 24.106C27.1966 24.346 26.9506 24.66 26.7706 25.048C26.5906 25.432 26.4866 25.836 26.4586 26.26C26.4506 26.372 26.4466 26.52 26.4466 26.704C26.6546 26.308 26.9506 26.012 27.3346 25.816C27.7186 25.616 28.1426 25.516 28.6066 25.516C29.1306 25.516 29.5806 25.634 29.9566 25.87C30.3366 26.102 30.6246 26.418 30.8206 26.818C31.0166 27.218 31.1146 27.664 31.1146 28.156C31.1146 28.764 30.9866 29.296 30.7306 29.752C30.4746 30.208 30.1126 30.56 29.6446 30.808C29.1806 31.056 28.6426 31.18 28.0306 31.18ZM28.1146 29.944C28.3706 29.944 28.6046 29.878 28.8166 29.746C29.0286 29.614 29.1966 29.424 29.3206 29.176C29.4446 28.924 29.5066 28.632 29.5066 28.3C29.5066 27.816 29.4006 27.436 29.1886 27.16C28.9806 26.88 28.6666 26.74 28.2466 26.74C27.9866 26.74 27.7346 26.806 27.4906 26.938C27.2466 27.066 27.0446 27.24 26.8846 27.46C26.7286 27.68 26.6426 27.916 26.6266 28.168C26.6266 28.488 26.6866 28.784 26.8066 29.056C26.9266 29.324 27.0986 29.54 27.3226 29.704C27.5506 29.864 27.8146 29.944 28.1146 29.944Z" fill="white"/>
<defs>
<filter id="filter0_d" x="0.793243" y="0" width="49.945" height="66.059" filterUnits="userSpaceOnUse" color-interpolation-filters="sRGB">
<feFlood flood-opacity="0" result="BackgroundImageFix"/>
<feColorMatrix in="SourceAlpha" type="matrix" values="0 0 0 0 0 0 0 0 0 0 0 0 0 0 0 0 0 0 127 0"/>
<feOffset dy="-2"/>
<feGaussianBlur stdDeviation="2"/>
<feColorMatrix type="matrix" values="0 0 0 0 0 0 0 0 0 0 0 0 0 0 0 0 0 0 0.119728 0"/>
<feBlend mode="normal" in2="BackgroundImageFix" result="effect1_dropShadow"/>
<feBlend mode="normal" in="SourceGraphic" in2="effect1_dropShadow" result="shape"/>
</filter>
</defs>
</svg>
