<svg width="51" height="67" viewBox="0 0 51 67" fill="none" xmlns="http://www.w3.org/2000/svg">
<g filter="url(#filter0_d)">
<path fill-rule="evenodd" clip-rule="evenodd" d="M25.6869 6H25.8445C37.3773 6.04318 46.7159 15.5623 46.7382 27.3073V27.3873C46.7067 42.1074 28.2084 64.0275 25.7709 64.059H25.7605C23.3192 64.0269 4.79324 41.3128 4.79324 27.3496C4.79324 15.5852 14.1404 6.04323 25.6869 6V6Z" fill="black" fill-opacity="0.01"/>
</g>
<mask id="mask0" mask-type="alpha" maskUnits="userSpaceOnUse" x="4" y="6" width="43" height="59">
<path fill-rule="evenodd" clip-rule="evenodd" d="M25.6869 6H25.8445C37.3773 6.04318 46.7159 15.5623 46.7382 27.3073V27.3873C46.7067 42.1074 28.2084 64.0275 25.7709 64.059H25.7605C23.3192 64.0269 4.79324 41.3128 4.79324 27.3496C4.79324 15.5852 14.1404 6.04323 25.6869 6V6Z" fill="white"/>
</mask>
<g mask="url(#mask0)">
<path fill-rule="evenodd" clip-rule="evenodd" d="M-1.92551 -0.704693H53.457V70.7636H-1.92551V-0.704693Z" fill="white"/>
</g>
<mask id="mask1" mask-type="alpha" maskUnits="userSpaceOnUse" x="9" y="10" width="34" height="34">
<path fill-rule="evenodd" clip-rule="evenodd" d="M26.0865 43.9583C35.1992 43.9583 42.5865 36.571 42.5865 27.4583C42.5865 18.3456 35.1992 10.9583 26.0865 10.9583C16.9738 10.9583 9.58649 18.3456 9.58649 27.4583C9.58649 36.571 16.9738 43.9583 26.0865 43.9583Z" fill="white"/>
</mask>
<g mask="url(#mask1)">
<path fill-rule="evenodd" clip-rule="evenodd" d="M3.91983 3.29163H49.2532V48.625H3.91983V3.29163Z" fill="#DE1A56"/>
</g>
<path d="M21.4723 23.176L23.0923 22.42V31H21.4723V23.176ZM29.416 26.632C29.916 26.8 30.31 27.06 30.598 27.412C30.886 27.764 31.03 28.196 31.03 28.708C31.03 29.28 30.878 29.754 30.574 30.13C30.274 30.506 29.884 30.782 29.404 30.958C28.928 31.13 28.422 31.216 27.886 31.216C27.346 31.216 26.836 31.13 26.356 30.958C25.88 30.782 25.49 30.506 25.186 30.13C24.882 29.754 24.73 29.28 24.73 28.708C24.73 28.2 24.872 27.772 25.156 27.424C25.44 27.072 25.832 26.808 26.332 26.632C25.932 26.452 25.624 26.194 25.408 25.858C25.196 25.518 25.09 25.1 25.09 24.604C25.09 24.104 25.222 23.692 25.486 23.368C25.75 23.04 26.094 22.802 26.518 22.654C26.942 22.506 27.402 22.432 27.898 22.432C28.39 22.432 28.844 22.506 29.26 22.654C29.68 22.802 30.02 23.04 30.28 23.368C30.54 23.692 30.67 24.104 30.67 24.604C30.67 25.088 30.558 25.5 30.334 25.84C30.114 26.18 29.808 26.444 29.416 26.632ZM27.91 23.536C27.102 23.536 26.698 23.928 26.698 24.712C26.698 25.14 26.806 25.476 27.022 25.72C27.238 25.96 27.534 26.08 27.91 26.08C28.282 26.08 28.568 25.96 28.768 25.72C28.972 25.48 29.074 25.144 29.074 24.712C29.074 24.316 28.98 24.022 28.792 23.83C28.604 23.634 28.31 23.536 27.91 23.536ZM27.886 30.004C28.346 30.004 28.694 29.894 28.93 29.674C29.17 29.454 29.29 29.124 29.29 28.684C29.29 28.188 29.154 27.826 28.882 27.598C28.61 27.37 28.278 27.256 27.886 27.256C27.486 27.256 27.148 27.37 26.872 27.598C26.596 27.826 26.458 28.188 26.458 28.684C26.458 29.124 26.578 29.454 26.818 29.674C27.062 29.894 27.418 30.004 27.886 30.004Z" fill="white"/>
<defs>
<filter id="filter0_d" x="0.793243" y="0" width="49.945" height="66.059" filterUnits="userSpaceOnUse" color-interpolation-filters="sRGB">
<feFlood flood-opacity="0" result="BackgroundImageFix"/>
<feColorMatrix in="SourceAlpha" type="matrix" values="0 0 0 0 0 0 0 0 0 0 0 0 0 0 0 0 0 0 127 0"/>
<feOffset dy="-2"/>
<feGaussianBlur stdDeviation="2"/>
<feColorMatrix type="matrix" values="0 0 0 0 0 0 0 0 0 0 0 0 0 0 0 0 0 0 0.119728 0"/>
<feBlend mode="normal" in2="BackgroundImageFix" result="effect1_dropShadow"/>
<feBlend mode="normal" in="SourceGraphic" in2="effect1_dropShadow" result="shape"/>
</filter>
</defs>
</svg>
