<svg width="50" height="67" viewBox="0 0 50 67" fill="none" xmlns="http://www.w3.org/2000/svg">
<g filter="url(#filter0_d)">
<path fill-rule="evenodd" clip-rule="evenodd" d="M24.8936 6H25.0512C36.584 6.04318 45.9226 15.5623 45.945 27.3073V27.3873C45.9135 42.1074 27.4151 64.0275 24.9777 64.059H24.9673C22.5259 64.0269 4 41.3128 4 27.3496C4 15.5852 13.3472 6.04323 24.8936 6V6Z" fill="black" fill-opacity="0.01"/>
</g>
<mask id="mask0" mask-type="alpha" maskUnits="userSpaceOnUse" x="4" y="6" width="42" height="59">
<path fill-rule="evenodd" clip-rule="evenodd" d="M24.8936 6H25.0512C36.584 6.04318 45.9226 15.5623 45.945 27.3073V27.3873C45.9135 42.1074 27.4151 64.0275 24.9777 64.059H24.9673C22.5259 64.0269 4 41.3128 4 27.3496C4 15.5852 13.3472 6.04323 24.8936 6V6Z" fill="white"/>
</mask>
<g mask="url(#mask0)">
<path fill-rule="evenodd" clip-rule="evenodd" d="M-2.71875 -0.704693H52.6638V70.7636H-2.71875V-0.704693Z" fill="white"/>
</g>
<mask id="mask1" mask-type="alpha" maskUnits="userSpaceOnUse" x="8" y="10" width="34" height="34">
<path fill-rule="evenodd" clip-rule="evenodd" d="M25.2932 43.9583C34.4059 43.9583 41.7932 36.571 41.7932 27.4583C41.7932 18.3456 34.4059 10.9583 25.2932 10.9583C16.1805 10.9583 8.79324 18.3456 8.79324 27.4583C8.79324 36.571 16.1805 43.9583 25.2932 43.9583Z" fill="white"/>
</mask>
<g mask="url(#mask1)">
<path fill-rule="evenodd" clip-rule="evenodd" d="M3.12659 3.29163H48.4599V48.625H3.12659V3.29163Z" fill="#DE1A56"/>
</g>
<path d="M20.6556 23.176L22.2756 22.42V31H20.6556V23.176ZM26.6733 31.18C26.1413 31.18 25.7173 31.128 25.4013 31.024C25.0893 30.92 24.8293 30.768 24.6213 30.568L25.2093 29.368C25.3573 29.528 25.5593 29.644 25.8153 29.716C26.0713 29.788 26.3293 29.824 26.5893 29.824C26.9973 29.824 27.3593 29.72 27.6753 29.512C27.9953 29.3 28.2473 29.008 28.4313 28.636C28.6153 28.26 28.7173 27.832 28.7373 27.352C28.7453 27.24 28.7493 27.092 28.7493 26.908C28.5453 27.304 28.2453 27.602 27.8493 27.802C27.4533 27.998 27.0213 28.096 26.5533 28.096C26.0293 28.096 25.5773 27.976 25.1973 27.736C24.8213 27.492 24.5353 27.166 24.3393 26.758C24.1433 26.35 24.0453 25.9 24.0453 25.408C24.0453 24.804 24.1773 24.278 24.4413 23.83C24.7093 23.378 25.0793 23.032 25.5513 22.792C26.0273 22.552 26.5733 22.432 27.1893 22.432C27.7133 22.432 28.2113 22.572 28.6833 22.852C29.1593 23.132 29.5513 23.588 29.8593 24.22C30.1673 24.848 30.3213 25.656 30.3213 26.644C30.3213 27.56 30.1653 28.362 29.8533 29.05C29.5413 29.734 29.1093 30.26 28.5573 30.628C28.0053 30.996 27.3773 31.18 26.6733 31.18ZM26.9493 26.872C27.2093 26.872 27.4573 26.808 27.6933 26.68C27.9333 26.548 28.1293 26.374 28.2813 26.158C28.4333 25.938 28.5173 25.7 28.5333 25.444C28.5333 25.124 28.4793 24.83 28.3713 24.562C28.2633 24.29 28.1053 24.074 27.8973 23.914C27.6893 23.75 27.4413 23.668 27.1533 23.668C26.8933 23.668 26.6493 23.732 26.4213 23.86C26.1933 23.984 26.0073 24.168 25.8633 24.412C25.7233 24.652 25.6533 24.936 25.6533 25.264C25.6533 25.748 25.7633 26.138 25.9833 26.434C26.2073 26.726 26.5293 26.872 26.9493 26.872Z" fill="white"/>
<defs>
<filter id="filter0_d" x="0" y="0" width="49.945" height="66.059" filterUnits="userSpaceOnUse" color-interpolation-filters="sRGB">
<feFlood flood-opacity="0" result="BackgroundImageFix"/>
<feColorMatrix in="SourceAlpha" type="matrix" values="0 0 0 0 0 0 0 0 0 0 0 0 0 0 0 0 0 0 127 0"/>
<feOffset dy="-2"/>
<feGaussianBlur stdDeviation="2"/>
<feColorMatrix type="matrix" values="0 0 0 0 0 0 0 0 0 0 0 0 0 0 0 0 0 0 0.119728 0"/>
<feBlend mode="normal" in2="BackgroundImageFix" result="effect1_dropShadow"/>
<feBlend mode="normal" in="SourceGraphic" in2="effect1_dropShadow" result="shape"/>
</filter>
</defs>
</svg>
