<svg width="51" height="67" viewBox="0 0 51 67" fill="none" xmlns="http://www.w3.org/2000/svg">
<g filter="url(#filter0_d)">
<path fill-rule="evenodd" clip-rule="evenodd" d="M25.1004 6.0417H25.258C36.7908 6.08488 46.1294 15.604 46.1517 27.349V27.429C46.1202 42.1491 27.6219 64.0692 25.1844 64.1007H25.174C22.7327 64.0686 4.20676 41.3545 4.20676 27.3913C4.20676 15.6269 13.5539 6.08494 25.1004 6.0417V6.0417Z" fill="black" fill-opacity="0.01"/>
</g>
<mask id="mask0" mask-type="alpha" maskUnits="userSpaceOnUse" x="4" y="6" width="43" height="59">
<path fill-rule="evenodd" clip-rule="evenodd" d="M25.1004 6.0417H25.258C36.7908 6.08488 46.1294 15.604 46.1517 27.349V27.429C46.1202 42.1491 27.6219 64.0692 25.1844 64.1007H25.174C22.7327 64.0686 4.20676 41.3545 4.20676 27.3913C4.20676 15.6269 13.5539 6.08494 25.1004 6.0417V6.0417Z" fill="white"/>
</mask>
<g mask="url(#mask0)">
<path fill-rule="evenodd" clip-rule="evenodd" d="M-2.51199 -0.662994H52.8705V70.8053H-2.51199V-0.662994Z" fill="white"/>
</g>
<mask id="mask1" mask-type="alpha" maskUnits="userSpaceOnUse" x="9" y="11" width="33" height="33">
<path fill-rule="evenodd" clip-rule="evenodd" d="M25.5 44C34.6127 44 42 36.6127 42 27.5C42 18.3873 34.6127 11 25.5 11C16.3873 11 9 18.3873 9 27.5C9 36.6127 16.3873 44 25.5 44Z" fill="white"/>
</mask>
<g mask="url(#mask1)">
<path fill-rule="evenodd" clip-rule="evenodd" d="M3.33334 3.33333H48.6667V48.6667H3.33334V3.33333Z" fill="#DE1A56"/>
</g>
<path d="M24.6945 31.18C24.2225 31.18 23.7765 31.122 23.3565 31.006C22.9365 30.89 22.5625 30.716 22.2345 30.484L22.7385 29.116C22.9625 29.332 23.2365 29.502 23.5605 29.626C23.8885 29.75 24.2145 29.812 24.5385 29.812C25.0585 29.812 25.4505 29.69 25.7145 29.446C25.9785 29.198 26.1105 28.872 26.1105 28.468C26.1105 28.02 25.9565 27.71 25.6485 27.538C25.3445 27.366 24.9385 27.28 24.4305 27.28H23.7945V26.092H24.4425C24.9185 26.092 25.2785 25.976 25.5225 25.744C25.7705 25.512 25.8945 25.204 25.8945 24.82C25.8945 24.44 25.7825 24.176 25.5585 24.028C25.3345 23.876 24.9945 23.8 24.5385 23.8C24.3745 23.8 24.1805 23.83 23.9565 23.89C23.7365 23.946 23.5205 24.03 23.3085 24.142C23.0965 24.25 22.9225 24.38 22.7865 24.532L22.1865 23.26C22.4585 23.02 22.8245 22.822 23.2845 22.666C23.7485 22.51 24.2745 22.432 24.8625 22.432C25.4145 22.432 25.8945 22.516 26.3025 22.684C26.7105 22.852 27.0245 23.098 27.2445 23.422C27.4645 23.742 27.5745 24.128 27.5745 24.58C27.5745 24.888 27.5185 25.19 27.4065 25.486C27.2985 25.782 27.1385 26.038 26.9265 26.254C26.7145 26.466 26.4665 26.608 26.1825 26.68C26.5105 26.68 26.7965 26.772 27.0405 26.956C27.2885 27.14 27.4765 27.382 27.6045 27.682C27.7365 27.982 27.8025 28.304 27.8025 28.648C27.8025 29.16 27.6645 29.608 27.3885 29.992C27.1125 30.376 26.7385 30.67 26.2665 30.874C25.7945 31.078 25.2705 31.18 24.6945 31.18Z" fill="white"/>
<defs>
<filter id="filter0_d" x="0.206757" y="0.0417023" width="49.945" height="66.059" filterUnits="userSpaceOnUse" color-interpolation-filters="sRGB">
<feFlood flood-opacity="0" result="BackgroundImageFix"/>
<feColorMatrix in="SourceAlpha" type="matrix" values="0 0 0 0 0 0 0 0 0 0 0 0 0 0 0 0 0 0 127 0"/>
<feOffset dy="-2"/>
<feGaussianBlur stdDeviation="2"/>
<feColorMatrix type="matrix" values="0 0 0 0 0 0 0 0 0 0 0 0 0 0 0 0 0 0 0.119728 0"/>
<feBlend mode="normal" in2="BackgroundImageFix" result="effect1_dropShadow"/>
<feBlend mode="normal" in="SourceGraphic" in2="effect1_dropShadow" result="shape"/>
</filter>
</defs>
</svg>
