<svg width="50" height="67" viewBox="0 0 50 67" fill="none" xmlns="http://www.w3.org/2000/svg">
<g filter="url(#filter0_d)">
<path fill-rule="evenodd" clip-rule="evenodd" d="M24.8936 6H25.0512C36.584 6.04318 45.9226 15.5623 45.945 27.3073V27.3873C45.9135 42.1074 27.4151 64.0275 24.9777 64.059H24.9673C22.5259 64.0269 4 41.3128 4 27.3496C4 15.5852 13.3472 6.04323 24.8936 6V6Z" fill="black" fill-opacity="0.01"/>
</g>
<mask id="mask0" mask-type="alpha" maskUnits="userSpaceOnUse" x="4" y="6" width="42" height="59">
<path fill-rule="evenodd" clip-rule="evenodd" d="M24.8936 6H25.0512C36.584 6.04318 45.9226 15.5623 45.945 27.3073V27.3873C45.9135 42.1074 27.4151 64.0275 24.9777 64.059H24.9673C22.5259 64.0269 4 41.3128 4 27.3496C4 15.5852 13.3472 6.04323 24.8936 6V6Z" fill="white"/>
</mask>
<g mask="url(#mask0)">
<path fill-rule="evenodd" clip-rule="evenodd" d="M-2.71875 -0.704697H52.6638V70.7636H-2.71875V-0.704697Z" fill="white"/>
</g>
<mask id="mask1" mask-type="alpha" maskUnits="userSpaceOnUse" x="8" y="10" width="34" height="34">
<path fill-rule="evenodd" clip-rule="evenodd" d="M25.2932 43.9583C34.4059 43.9583 41.7932 36.571 41.7932 27.4583C41.7932 18.3456 34.4059 10.9583 25.2932 10.9583C16.1805 10.9583 8.79324 18.3456 8.79324 27.4583C8.79324 36.571 16.1805 43.9583 25.2932 43.9583Z" fill="white"/>
</mask>
<g mask="url(#mask1)">
<path fill-rule="evenodd" clip-rule="evenodd" d="M3.12657 3.29163H48.4599V48.625H3.12657V3.29163Z" fill="#DE1A56"/>
</g>
<path d="M28.1453 29.4463H27.1373V30.9583H25.5653V29.4463H21.6053L21.5213 29.3143L24.6053 22.5943H27.1373V28.2823H28.1453V29.4463ZM23.6573 28.2823H25.6373L25.6913 23.4523L24.3413 26.7943L23.6573 28.2823Z" fill="white"/>
<defs>
<filter id="filter0_d" x="0" y="0" width="49.945" height="66.059" filterUnits="userSpaceOnUse" color-interpolation-filters="sRGB">
<feFlood flood-opacity="0" result="BackgroundImageFix"/>
<feColorMatrix in="SourceAlpha" type="matrix" values="0 0 0 0 0 0 0 0 0 0 0 0 0 0 0 0 0 0 127 0"/>
<feOffset dy="-2"/>
<feGaussianBlur stdDeviation="2"/>
<feColorMatrix type="matrix" values="0 0 0 0 0 0 0 0 0 0 0 0 0 0 0 0 0 0 0.119728 0"/>
<feBlend mode="normal" in2="BackgroundImageFix" result="effect1_dropShadow"/>
<feBlend mode="normal" in="SourceGraphic" in2="effect1_dropShadow" result="shape"/>
</filter>
</defs>
</svg>
