<svg width="51" height="67" viewBox="0 0 51 67" fill="none" xmlns="http://www.w3.org/2000/svg">
<g filter="url(#filter0_d)">
<path fill-rule="evenodd" clip-rule="evenodd" d="M25.6869 6H25.8445C37.3773 6.04318 46.7159 15.5623 46.7382 27.3073V27.3873C46.7067 42.1074 28.2084 64.0275 25.7709 64.059H25.7605C23.3192 64.0269 4.79324 41.3128 4.79324 27.3496C4.79324 15.5852 14.1404 6.04323 25.6869 6V6Z" fill="black" fill-opacity="0.01"/>
</g>
<mask id="mask0" mask-type="alpha" maskUnits="userSpaceOnUse" x="4" y="6" width="43" height="59">
<path fill-rule="evenodd" clip-rule="evenodd" d="M25.6869 6H25.8445C37.3773 6.04318 46.7159 15.5623 46.7382 27.3073V27.3873C46.7067 42.1074 28.2084 64.0275 25.7709 64.059H25.7605C23.3192 64.0269 4.79324 41.3128 4.79324 27.3496C4.79324 15.5852 14.1404 6.04323 25.6869 6V6Z" fill="white"/>
</mask>
<g mask="url(#mask0)">
<path fill-rule="evenodd" clip-rule="evenodd" d="M-1.92551 -0.704697H53.457V70.7636H-1.92551V-0.704697Z" fill="white"/>
</g>
<mask id="mask1" mask-type="alpha" maskUnits="userSpaceOnUse" x="9" y="10" width="34" height="34">
<path fill-rule="evenodd" clip-rule="evenodd" d="M26.0865 43.9583C35.1992 43.9583 42.5865 36.571 42.5865 27.4583C42.5865 18.3456 35.1992 10.9583 26.0865 10.9583C16.9738 10.9583 9.58649 18.3456 9.58649 27.4583C9.58649 36.571 16.9738 43.9583 26.0865 43.9583Z" fill="white"/>
</mask>
<g mask="url(#mask1)">
<path fill-rule="evenodd" clip-rule="evenodd" d="M3.91983 3.29163H49.2532V48.625H3.91983V3.29163Z" fill="#DE1A56"/>
</g>
<path d="M25.7362 31.1383C25.1682 31.1383 24.6442 31.0003 24.1642 30.7243C23.6842 30.4443 23.2942 29.9903 22.9942 29.3623C22.6942 28.7343 22.5442 27.9223 22.5442 26.9263C22.5442 26.0103 22.7002 25.2103 23.0122 24.5263C23.3242 23.8383 23.7562 23.3103 24.3082 22.9423C24.8602 22.5743 25.4882 22.3903 26.1922 22.3903C26.7242 22.3903 27.1462 22.4423 27.4582 22.5463C27.7742 22.6503 28.0362 22.8023 28.2442 23.0023L27.6562 24.1543C27.5082 23.9943 27.3062 23.8783 27.0502 23.8063C26.7942 23.7343 26.5362 23.6983 26.2762 23.6983C25.8802 23.6983 25.5262 23.8203 25.2142 24.0643C24.9022 24.3043 24.6562 24.6183 24.4762 25.0063C24.2962 25.3903 24.1922 25.7943 24.1642 26.2183C24.1562 26.3303 24.1522 26.4783 24.1522 26.6623C24.3602 26.2663 24.6562 25.9703 25.0402 25.7743C25.4242 25.5743 25.8482 25.4743 26.3122 25.4743C26.8362 25.4743 27.2862 25.5923 27.6622 25.8283C28.0422 26.0603 28.3302 26.3763 28.5262 26.7763C28.7222 27.1763 28.8202 27.6223 28.8202 28.1143C28.8202 28.7223 28.6922 29.2543 28.4362 29.7103C28.1802 30.1663 27.8182 30.5183 27.3502 30.7663C26.8862 31.0143 26.3482 31.1383 25.7362 31.1383ZM25.8202 29.9023C26.0762 29.9023 26.3102 29.8363 26.5222 29.7043C26.7342 29.5723 26.9022 29.3823 27.0262 29.1343C27.1502 28.8823 27.2122 28.5903 27.2122 28.2583C27.2122 27.7743 27.1062 27.3943 26.8942 27.1183C26.6862 26.8383 26.3722 26.6983 25.9522 26.6983C25.6922 26.6983 25.4402 26.7643 25.1962 26.8963C24.9522 27.0243 24.7502 27.1983 24.5902 27.4183C24.4342 27.6383 24.3482 27.8743 24.3322 28.1263C24.3322 28.4463 24.3922 28.7423 24.5122 29.0143C24.6322 29.2823 24.8042 29.4983 25.0282 29.6623C25.2562 29.8223 25.5202 29.9023 25.8202 29.9023Z" fill="white"/>
<defs>
<filter id="filter0_d" x="0.793243" y="0" width="49.945" height="66.059" filterUnits="userSpaceOnUse" color-interpolation-filters="sRGB">
<feFlood flood-opacity="0" result="BackgroundImageFix"/>
<feColorMatrix in="SourceAlpha" type="matrix" values="0 0 0 0 0 0 0 0 0 0 0 0 0 0 0 0 0 0 127 0"/>
<feOffset dy="-2"/>
<feGaussianBlur stdDeviation="2"/>
<feColorMatrix type="matrix" values="0 0 0 0 0 0 0 0 0 0 0 0 0 0 0 0 0 0 0.119728 0"/>
<feBlend mode="normal" in2="BackgroundImageFix" result="effect1_dropShadow"/>
<feBlend mode="normal" in="SourceGraphic" in2="effect1_dropShadow" result="shape"/>
</filter>
</defs>
</svg>
