<svg width="51" height="67" viewBox="0 0 51 67" fill="none" xmlns="http://www.w3.org/2000/svg">
<g filter="url(#filter0_d)">
<path fill-rule="evenodd" clip-rule="evenodd" d="M25.6869 6H25.8445C37.3773 6.04318 46.7159 15.5623 46.7382 27.3073V27.3873C46.7067 42.1074 28.2084 64.0275 25.7709 64.059H25.7605C23.3192 64.0269 4.79324 41.3128 4.79324 27.3496C4.79324 15.5852 14.1404 6.04323 25.6869 6V6Z" fill="black" fill-opacity="0.01"/>
</g>
<mask id="mask0" mask-type="alpha" maskUnits="userSpaceOnUse" x="4" y="6" width="43" height="59">
<path fill-rule="evenodd" clip-rule="evenodd" d="M25.6869 6H25.8445C37.3773 6.04318 46.7159 15.5623 46.7382 27.3073V27.3873C46.7067 42.1074 28.2084 64.0275 25.7709 64.059H25.7605C23.3192 64.0269 4.79324 41.3128 4.79324 27.3496C4.79324 15.5852 14.1404 6.04323 25.6869 6V6Z" fill="white"/>
</mask>
<g mask="url(#mask0)">
<path fill-rule="evenodd" clip-rule="evenodd" d="M-1.92551 -0.704697H53.457V70.7636H-1.92551V-0.704697Z" fill="white"/>
</g>
<mask id="mask1" mask-type="alpha" maskUnits="userSpaceOnUse" x="9" y="10" width="34" height="34">
<path fill-rule="evenodd" clip-rule="evenodd" d="M26.0865 43.9583C35.1992 43.9583 42.5865 36.571 42.5865 27.4583C42.5865 18.3456 35.1992 10.9583 26.0865 10.9583C16.9738 10.9583 9.58649 18.3456 9.58649 27.4583C9.58649 36.571 16.9738 43.9583 26.0865 43.9583Z" fill="white"/>
</mask>
<g mask="url(#mask1)">
<path fill-rule="evenodd" clip-rule="evenodd" d="M3.91982 3.29163H49.2531V48.625H3.91982V3.29163Z" fill="#DE1A56"/>
</g>
<path d="M27.1216 26.5903C27.6216 26.7583 28.0156 27.0183 28.3036 27.3703C28.5916 27.7223 28.7356 28.1543 28.7356 28.6663C28.7356 29.2383 28.5836 29.7123 28.2796 30.0883C27.9796 30.4643 27.5896 30.7403 27.1096 30.9163C26.6336 31.0883 26.1276 31.1743 25.5916 31.1743C25.0516 31.1743 24.5416 31.0883 24.0616 30.9163C23.5856 30.7403 23.1956 30.4643 22.8916 30.0883C22.5876 29.7123 22.4356 29.2383 22.4356 28.6663C22.4356 28.1583 22.5776 27.7303 22.8616 27.3823C23.1456 27.0303 23.5376 26.7663 24.0376 26.5903C23.6376 26.4103 23.3296 26.1523 23.1136 25.8163C22.9016 25.4763 22.7956 25.0583 22.7956 24.5623C22.7956 24.0623 22.9276 23.6503 23.1916 23.3263C23.4556 22.9983 23.7996 22.7603 24.2236 22.6123C24.6476 22.4643 25.1076 22.3903 25.6036 22.3903C26.0956 22.3903 26.5496 22.4643 26.9656 22.6123C27.3856 22.7603 27.7256 22.9983 27.9856 23.3263C28.2456 23.6503 28.3756 24.0623 28.3756 24.5623C28.3756 25.0463 28.2636 25.4583 28.0396 25.7983C27.8196 26.1383 27.5136 26.4023 27.1216 26.5903ZM25.6156 23.4943C24.8076 23.4943 24.4036 23.8863 24.4036 24.6703C24.4036 25.0983 24.5116 25.4343 24.7276 25.6783C24.9436 25.9183 25.2396 26.0383 25.6156 26.0383C25.9876 26.0383 26.2736 25.9183 26.4736 25.6783C26.6776 25.4383 26.7796 25.1023 26.7796 24.6703C26.7796 24.2743 26.6856 23.9803 26.4976 23.7883C26.3096 23.5923 26.0156 23.4943 25.6156 23.4943ZM25.5916 29.9623C26.0516 29.9623 26.3996 29.8523 26.6356 29.6323C26.8756 29.4123 26.9956 29.0823 26.9956 28.6423C26.9956 28.1463 26.8596 27.7843 26.5876 27.5563C26.3156 27.3283 25.9836 27.2143 25.5916 27.2143C25.1916 27.2143 24.8536 27.3283 24.5776 27.5563C24.3016 27.7843 24.1636 28.1463 24.1636 28.6423C24.1636 29.0823 24.2836 29.4123 24.5236 29.6323C24.7676 29.8523 25.1236 29.9623 25.5916 29.9623Z" fill="white"/>
<defs>
<filter id="filter0_d" x="0.793243" y="0" width="49.945" height="66.059" filterUnits="userSpaceOnUse" color-interpolation-filters="sRGB">
<feFlood flood-opacity="0" result="BackgroundImageFix"/>
<feColorMatrix in="SourceAlpha" type="matrix" values="0 0 0 0 0 0 0 0 0 0 0 0 0 0 0 0 0 0 127 0"/>
<feOffset dy="-2"/>
<feGaussianBlur stdDeviation="2"/>
<feColorMatrix type="matrix" values="0 0 0 0 0 0 0 0 0 0 0 0 0 0 0 0 0 0 0.119728 0"/>
<feBlend mode="normal" in2="BackgroundImageFix" result="effect1_dropShadow"/>
<feBlend mode="normal" in="SourceGraphic" in2="effect1_dropShadow" result="shape"/>
</filter>
</defs>
</svg>
