<svg width="51" height="67" viewBox="0 0 51 67" fill="none" xmlns="http://www.w3.org/2000/svg">
<g filter="url(#filter0_d)">
<path fill-rule="evenodd" clip-rule="evenodd" d="M25.1004 6.0417H25.258C36.7908 6.08488 46.1294 15.604 46.1517 27.349V27.429C46.1202 42.1491 27.6219 64.0692 25.1844 64.1007H25.174C22.7327 64.0686 4.20676 41.3545 4.20676 27.3913C4.20676 15.6269 13.5539 6.08494 25.1004 6.0417V6.0417Z" fill="black" fill-opacity="0.01"/>
</g>
<mask id="mask0" mask-type="alpha" maskUnits="userSpaceOnUse" x="4" y="6" width="43" height="59">
<path fill-rule="evenodd" clip-rule="evenodd" d="M25.1004 6.0417H25.258C36.7908 6.08488 46.1294 15.604 46.1517 27.349V27.429C46.1202 42.1491 27.6219 64.0692 25.1844 64.1007H25.174C22.7327 64.0686 4.20676 41.3545 4.20676 27.3913C4.20676 15.6269 13.5539 6.08494 25.1004 6.0417V6.0417Z" fill="white"/>
</mask>
<g mask="url(#mask0)">
<path fill-rule="evenodd" clip-rule="evenodd" d="M-2.51199 -0.662994H52.8705V70.8053H-2.51199V-0.662994Z" fill="white"/>
</g>
<mask id="mask1" mask-type="alpha" maskUnits="userSpaceOnUse" x="9" y="11" width="33" height="33">
<path fill-rule="evenodd" clip-rule="evenodd" d="M25.5 44C34.6127 44 42 36.6127 42 27.5C42 18.3873 34.6127 11 25.5 11C16.3873 11 9 18.3873 9 27.5C9 36.6127 16.3873 44 25.5 44Z" fill="white"/>
</mask>
<g mask="url(#mask1)">
<path fill-rule="evenodd" clip-rule="evenodd" d="M3.33334 3.33334H48.6667V48.6667H3.33334V3.33334Z" fill="#DE1A56"/>
</g>
<path d="M24.5857 31.18C24.0537 31.18 23.6297 31.128 23.3137 31.024C23.0017 30.92 22.7417 30.768 22.5337 30.568L23.1217 29.368C23.2697 29.528 23.4717 29.644 23.7277 29.716C23.9837 29.788 24.2417 29.824 24.5017 29.824C24.9097 29.824 25.2717 29.72 25.5877 29.512C25.9077 29.3 26.1597 29.008 26.3437 28.636C26.5277 28.26 26.6297 27.832 26.6497 27.352C26.6577 27.24 26.6617 27.092 26.6617 26.908C26.4577 27.304 26.1577 27.602 25.7617 27.802C25.3657 27.998 24.9337 28.096 24.4657 28.096C23.9417 28.096 23.4897 27.976 23.1097 27.736C22.7337 27.492 22.4477 27.166 22.2517 26.758C22.0557 26.35 21.9577 25.9 21.9577 25.408C21.9577 24.804 22.0897 24.278 22.3537 23.83C22.6217 23.378 22.9917 23.032 23.4637 22.792C23.9397 22.552 24.4857 22.432 25.1017 22.432C25.6257 22.432 26.1237 22.572 26.5957 22.852C27.0717 23.132 27.4637 23.588 27.7717 24.22C28.0797 24.848 28.2337 25.656 28.2337 26.644C28.2337 27.56 28.0777 28.362 27.7657 29.05C27.4537 29.734 27.0217 30.26 26.4697 30.628C25.9177 30.996 25.2897 31.18 24.5857 31.18ZM24.8617 26.872C25.1217 26.872 25.3697 26.808 25.6057 26.68C25.8457 26.548 26.0417 26.374 26.1937 26.158C26.3457 25.938 26.4297 25.7 26.4457 25.444C26.4457 25.124 26.3917 24.83 26.2837 24.562C26.1757 24.29 26.0177 24.074 25.8097 23.914C25.6017 23.75 25.3537 23.668 25.0657 23.668C24.8057 23.668 24.5617 23.732 24.3337 23.86C24.1057 23.984 23.9197 24.168 23.7757 24.412C23.6357 24.652 23.5657 24.936 23.5657 25.264C23.5657 25.748 23.6757 26.138 23.8957 26.434C24.1197 26.726 24.4417 26.872 24.8617 26.872Z" fill="white"/>
<defs>
<filter id="filter0_d" x="0.206757" y="0.0417023" width="49.945" height="66.059" filterUnits="userSpaceOnUse" color-interpolation-filters="sRGB">
<feFlood flood-opacity="0" result="BackgroundImageFix"/>
<feColorMatrix in="SourceAlpha" type="matrix" values="0 0 0 0 0 0 0 0 0 0 0 0 0 0 0 0 0 0 127 0"/>
<feOffset dy="-2"/>
<feGaussianBlur stdDeviation="2"/>
<feColorMatrix type="matrix" values="0 0 0 0 0 0 0 0 0 0 0 0 0 0 0 0 0 0 0.119728 0"/>
<feBlend mode="normal" in2="BackgroundImageFix" result="effect1_dropShadow"/>
<feBlend mode="normal" in="SourceGraphic" in2="effect1_dropShadow" result="shape"/>
</filter>
</defs>
</svg>
