<svg width="39" height="25" viewBox="0 0 39 25" fill="none" xmlns="http://www.w3.org/2000/svg">
<mask id="mask0" mask-type="alpha" maskUnits="userSpaceOnUse" x="0" y="0" width="39" height="25">
<path fill-rule="evenodd" clip-rule="evenodd" d="M39 18.8926V18.9147C38.9996 19.3422 38.9753 19.8176 38.9228 20.3485C38.7538 22.0559 37.5721 23.2488 36.049 23.2488L35.9756 23.248L34.4443 23.2068L33.7288 23.1875C32.8463 24.2921 31.5016 25 29.9968 25C28.4014 25 26.9889 24.2024 26.1137 22.9821L25.1325 22.9557L14.8708 22.6791L14.1505 22.6597C13.3091 24.0314 11.8168 24.9492 10.1135 24.9492C8.37055 24.9492 6.84753 23.9878 6.01861 22.5619H5.35041H3.60484C1.61712 22.5619 0 20.9174 0 18.8957V17.1133C0 16.0608 0.445911 15.0865 1.18443 14.4069C0.849531 12.5823 1.01764 10.7676 1.68717 8.99647C3.10076 5.25878 5.24468 3.00401 6.79467 1.77086C8.22913 0.628824 10.036 0 11.8823 0C12.0645 0 12.2492 0.00644958 12.4313 0.0185504C18.1888 0.399223 23.9434 2.06765 24.1855 2.13836L24.2563 2.15905L24.325 2.18647C29.0921 4.09847 34.8247 10.1899 35.0663 10.4482L35.1081 10.4928L35.1461 10.5407C35.3647 10.8138 37.2393 13.1976 37.94 15.2908C38.5037 16.0015 38.9981 16.9535 39 18.8926V18.8926ZM37.3857 20.191C37.7322 16.6912 36.6567 16.3915 36.5304 15.9654C36.164 14.7303 35.1921 13.2407 34.5501 12.3406L34.5482 12.3742L2.8634 10.3824C2.39079 12.1158 2.52296 13.7248 2.95116 15.1368C2.13784 15.4177 1.5447 16.1944 1.5447 17.1133V18.8957C1.5447 20.048 2.47194 20.9908 3.60484 20.9908H5.35041C5.25393 20.5077 5.22565 19.9996 5.27824 19.4764C5.51165 17.1625 7.3619 15.2774 9.63744 15.044C9.8082 15.0266 9.97815 15.018 10.1455 15.018C12.8484 15.018 15.0391 17.2461 15.0391 19.995C15.0391 20.3784 14.9924 20.7499 14.912 21.1083L25.1732 21.3846C24.9835 20.7206 24.9184 20.0022 25.0324 19.2514C25.3971 16.852 27.4887 15.018 29.8721 15.018C29.8869 15.018 29.9017 15.018 29.9165 15.0182C32.1096 15.0392 33.9559 16.5283 34.5561 18.565C34.7155 19.0511 34.8054 19.5692 34.8054 20.1087C34.8054 20.6432 34.7176 21.1564 34.5612 21.6379L36.0163 21.6771C36.0274 21.6774 36.0382 21.6774 36.049 21.6774C36.8312 21.6774 37.3062 20.9913 37.3857 20.191ZM29.9968 23.4286C31.1757 23.4286 32.2076 22.7872 32.7812 21.8317L33.0268 21.1171C33.1537 20.748 33.2179 20.3706 33.2179 19.995C33.2179 19.6549 33.1674 19.3264 33.0749 19.0159C32.6292 17.7214 31.4194 16.7896 29.9968 16.7896C28.1971 16.7896 26.7327 18.2784 26.7327 20.1087C26.7327 21.9392 28.1971 23.4286 29.9968 23.4286ZM10.1135 23.3778C11.8855 23.3778 13.3274 21.911 13.3274 20.1087C13.3274 18.3064 11.8855 16.8402 10.1135 16.8402C8.34147 16.8402 6.89986 18.3064 6.89986 20.1087C6.89986 21.911 8.34147 23.3778 10.1135 23.3778ZM7.74648 3.00832C6.3559 4.11515 4.65946 5.94702 3.42006 8.84296L8.64517 9.17149L11.7222 1.57836C10.284 1.6125 8.88836 2.09992 7.74648 3.00832ZM13.357 1.66842L10.2747 9.27391L21.7188 9.99334V3.11531C19.7478 2.63733 16.5931 1.96737 13.357 1.66842ZM33.1471 10.7117C31.4263 8.99191 27.2408 5.04506 23.7581 3.64842C23.7581 3.64842 23.5807 3.59655 23.2635 3.51078V10.0907L33.1471 10.7117Z" fill="white"/>
</mask>
<g mask="url(#mask0)">
<path fill-rule="evenodd" clip-rule="evenodd" d="M-10 -11H50V35H-10V-11Z" fill="#2F3059"/>
</g>
</svg>
