<svg width="51" height="67" viewBox="0 0 51 67" fill="none" xmlns="http://www.w3.org/2000/svg">
<g filter="url(#filter0_d)">
<path fill-rule="evenodd" clip-rule="evenodd" d="M25.1004 6.04175H25.258C36.7908 6.08493 46.1294 15.6041 46.1518 27.3491V27.429C46.1203 42.1491 27.6219 64.0692 25.1845 64.1008H25.1741C22.7327 64.0687 4.20679 41.3546 4.20679 27.3914C4.20679 15.627 13.554 6.08498 25.1004 6.04175V6.04175Z" fill="black" fill-opacity="0.01"/>
</g>
<mask id="mask0" mask-type="alpha" maskUnits="userSpaceOnUse" x="4" y="6" width="43" height="59">
<path fill-rule="evenodd" clip-rule="evenodd" d="M25.1004 6.04175H25.258C36.7908 6.08493 46.1294 15.6041 46.1518 27.3491V27.429C46.1203 42.1491 27.6219 64.0692 25.1845 64.1008H25.1741C22.7327 64.0687 4.20679 41.3546 4.20679 27.3914C4.20679 15.627 13.554 6.08498 25.1004 6.04175V6.04175Z" fill="white"/>
</mask>
<g mask="url(#mask0)">
<path fill-rule="evenodd" clip-rule="evenodd" d="M-2.51196 -0.663086H52.8706V70.8052H-2.51196V-0.663086Z" fill="white"/>
</g>
<mask id="mask1" mask-type="alpha" maskUnits="userSpaceOnUse" x="9" y="11" width="33" height="33">
<path fill-rule="evenodd" clip-rule="evenodd" d="M25.5 44C34.6127 44 42 36.6127 42 27.5C42 18.3873 34.6127 11 25.5 11C16.3873 11 9 18.3873 9 27.5C9 36.6127 16.3873 44 25.5 44Z" fill="white"/>
</mask>
<g mask="url(#mask1)">
<path fill-rule="evenodd" clip-rule="evenodd" d="M3.33337 3.33325H48.6667V48.6666H3.33337V3.33325Z" fill="#DE1A56"/>
</g>
<mask id="mask2" mask-type="alpha" maskUnits="userSpaceOnUse" x="13" y="18" width="26" height="16">
<path fill-rule="evenodd" clip-rule="evenodd" d="M38.3158 29.9905V30.0045C38.3155 30.2759 38.3002 30.5775 38.267 30.9145C38.1603 31.9982 37.4139 32.7552 36.452 32.7552L36.4056 32.7547L35.4385 32.7286L34.9866 32.7163C34.4292 33.4174 33.58 33.8667 32.6296 33.8667C31.6219 33.8667 30.7298 33.3604 30.1771 32.586L29.5574 32.5692L23.0763 32.3937L22.6213 32.3814C22.09 33.2519 21.1474 33.8344 20.0717 33.8344C18.9709 33.8344 18.009 33.2243 17.4854 32.3193H17.0634H15.9609C14.7055 32.3193 13.6842 31.2756 13.6842 29.9925V28.8612C13.6842 28.1933 13.9658 27.5749 14.4323 27.1436C14.2207 25.9855 14.3269 24.8338 14.7498 23.7098C15.6426 21.3376 16.9966 19.9065 17.9756 19.1239C18.8815 18.3991 20.0228 18 21.1888 18C21.3039 18 21.4205 18.0041 21.5356 18.0118C25.1719 18.2534 28.8063 19.3123 28.9592 19.3571L29.004 19.3703L29.0474 19.3877C32.0582 20.6012 35.6788 24.4672 35.8313 24.6311L35.8577 24.6595L35.8818 24.6898C36.0198 24.8632 37.2038 26.3761 37.6463 27.7046C38.0023 28.1556 38.3146 28.7598 38.3158 29.9905V29.9905ZM37.2962 30.8145C37.5151 28.5934 36.8358 28.4031 36.756 28.1327C36.5246 27.3488 35.9108 26.4034 35.5053 25.8321L35.5041 25.8535L15.4927 24.5893C15.1942 25.6895 15.2776 26.7107 15.5481 27.6068C15.0344 27.7851 14.6598 28.2781 14.6598 28.8612V29.9925C14.6598 30.7238 15.2454 31.3221 15.9609 31.3221H17.0634C17.0025 31.0155 16.9846 30.6931 17.0178 30.361C17.1652 28.8925 18.3338 27.6961 19.771 27.5479C19.8789 27.5369 19.9862 27.5314 20.0919 27.5314C21.799 27.5314 23.1826 28.9455 23.1826 30.6902C23.1826 30.9335 23.1531 31.1693 23.1023 31.3967L29.5831 31.5721C29.4632 31.1507 29.4222 30.6948 29.4941 30.2182C29.7245 28.6954 31.0455 27.5314 32.5508 27.5314C32.5601 27.5314 32.5695 27.5314 32.5788 27.5316C33.9639 27.5449 35.13 28.49 35.5091 29.7826C35.6098 30.0911 35.6666 30.4199 35.6666 30.7623C35.6666 31.1015 35.6111 31.4273 35.5123 31.7328L36.4313 31.7578C36.4383 31.7579 36.4452 31.7579 36.452 31.7579C36.946 31.7579 37.246 31.3225 37.2962 30.8145ZM32.6296 32.8694C33.3741 32.8694 34.0259 32.4623 34.3881 31.8559L34.5432 31.4023C34.6234 31.1681 34.6639 30.9285 34.6639 30.6902C34.6639 30.4743 34.632 30.2658 34.5736 30.0687C34.2921 29.2472 33.5281 28.6558 32.6296 28.6558C31.4929 28.6558 30.568 29.6007 30.568 30.7623C30.568 31.9241 31.4929 32.8694 32.6296 32.8694ZM20.0717 32.8371C21.1908 32.8371 22.1015 31.9062 22.1015 30.7623C22.1015 29.6185 21.1908 28.6879 20.0717 28.6879C18.9525 28.6879 18.042 29.6185 18.042 30.7623C18.042 31.9062 18.9525 32.8371 20.0717 32.8371ZM18.5767 19.9093C17.6985 20.6117 16.627 21.7744 15.8442 23.6123L19.1443 23.8208L21.0877 19.0017C20.1793 19.0234 19.2979 19.3327 18.5767 19.9093ZM22.1202 19.0589L20.1735 23.8858L27.4014 24.3424V19.9772C26.1565 19.6738 24.1641 19.2486 22.1202 19.0589ZM34.6192 24.7983C33.5324 23.7069 30.8889 21.2019 28.6893 20.3155C28.6893 20.3155 28.5773 20.2826 28.377 20.2282V24.4042L34.6192 24.7983Z" fill="white"/>
</mask>
<g mask="url(#mask2)">
<path fill-rule="evenodd" clip-rule="evenodd" d="M6.84216 11.3333H45.158V40.5333H6.84216V11.3333Z" fill="white"/>
</g>
<defs>
<filter id="filter0_d" x="0.206787" y="0.041748" width="49.945" height="66.059" filterUnits="userSpaceOnUse" color-interpolation-filters="sRGB">
<feFlood flood-opacity="0" result="BackgroundImageFix"/>
<feColorMatrix in="SourceAlpha" type="matrix" values="0 0 0 0 0 0 0 0 0 0 0 0 0 0 0 0 0 0 127 0"/>
<feOffset dy="-2"/>
<feGaussianBlur stdDeviation="2"/>
<feColorMatrix type="matrix" values="0 0 0 0 0 0 0 0 0 0 0 0 0 0 0 0 0 0 0.119728 0"/>
<feBlend mode="normal" in2="BackgroundImageFix" result="effect1_dropShadow"/>
<feBlend mode="normal" in="SourceGraphic" in2="effect1_dropShadow" result="shape"/>
</filter>
</defs>
</svg>
