<svg width="51" height="67" viewBox="0 0 51 67" fill="none" xmlns="http://www.w3.org/2000/svg">
<g filter="url(#filter0_d)">
<path fill-rule="evenodd" clip-rule="evenodd" d="M25.1004 6.0417H25.258C36.7908 6.08488 46.1294 15.604 46.1517 27.349V27.429C46.1202 42.1491 27.6219 64.0692 25.1844 64.1007H25.174C22.7327 64.0686 4.20676 41.3545 4.20676 27.3913C4.20676 15.6269 13.5539 6.08494 25.1004 6.0417V6.0417Z" fill="black" fill-opacity="0.01"/>
</g>
<mask id="mask0" mask-type="alpha" maskUnits="userSpaceOnUse" x="4" y="6" width="43" height="59">
<path fill-rule="evenodd" clip-rule="evenodd" d="M25.1004 6.0417H25.258C36.7908 6.08488 46.1294 15.604 46.1517 27.349V27.429C46.1202 42.1491 27.6219 64.0692 25.1844 64.1007H25.174C22.7327 64.0686 4.20676 41.3545 4.20676 27.3913C4.20676 15.6269 13.5539 6.08494 25.1004 6.0417V6.0417Z" fill="white"/>
</mask>
<g mask="url(#mask0)">
<path fill-rule="evenodd" clip-rule="evenodd" d="M-2.51199 -0.662994H52.8705V70.8053H-2.51199V-0.662994Z" fill="white"/>
</g>
<mask id="mask1" mask-type="alpha" maskUnits="userSpaceOnUse" x="9" y="11" width="33" height="33">
<path fill-rule="evenodd" clip-rule="evenodd" d="M25.5 44C34.6127 44 42 36.6127 42 27.5C42 18.3873 34.6127 11 25.5 11C16.3873 11 9 18.3873 9 27.5C9 36.6127 16.3873 44 25.5 44Z" fill="white"/>
</mask>
<g mask="url(#mask1)">
<path fill-rule="evenodd" clip-rule="evenodd" d="M3.33334 3.33334H48.6667V48.6667H3.33334V3.33334Z" fill="#DE1A56"/>
</g>
<path d="M22.3063 24.176L23.9263 23.42V32H22.3063V24.176ZM26.068 24.176L27.688 23.42V32H26.068V24.176Z" fill="white"/>
<defs>
<filter id="filter0_d" x="0.206757" y="0.0417023" width="49.945" height="66.059" filterUnits="userSpaceOnUse" color-interpolation-filters="sRGB">
<feFlood flood-opacity="0" result="BackgroundImageFix"/>
<feColorMatrix in="SourceAlpha" type="matrix" values="0 0 0 0 0 0 0 0 0 0 0 0 0 0 0 0 0 0 127 0"/>
<feOffset dy="-2"/>
<feGaussianBlur stdDeviation="2"/>
<feColorMatrix type="matrix" values="0 0 0 0 0 0 0 0 0 0 0 0 0 0 0 0 0 0 0.119728 0"/>
<feBlend mode="normal" in2="BackgroundImageFix" result="effect1_dropShadow"/>
<feBlend mode="normal" in="SourceGraphic" in2="effect1_dropShadow" result="shape"/>
</filter>
</defs>
</svg>
