<svg width="50" height="67" viewBox="0 0 50 67" fill="none" xmlns="http://www.w3.org/2000/svg">
<g filter="url(#filter0_d)">
<path fill-rule="evenodd" clip-rule="evenodd" d="M24.8936 6.0417H25.0512C36.584 6.08488 45.9226 15.604 45.945 27.349V27.429C45.9135 42.1491 27.4151 64.0692 24.9777 64.1007H24.9673C22.5259 64.0686 4 41.3545 4 27.3913C4 15.6269 13.3472 6.08494 24.8936 6.0417V6.0417Z" fill="black" fill-opacity="0.01"/>
</g>
<mask id="mask0" mask-type="alpha" maskUnits="userSpaceOnUse" x="4" y="6" width="42" height="59">
<path fill-rule="evenodd" clip-rule="evenodd" d="M24.8936 6.0417H25.0512C36.584 6.08488 45.9226 15.604 45.945 27.349V27.429C45.9135 42.1491 27.4151 64.0692 24.9777 64.1007H24.9673C22.5259 64.0686 4 41.3545 4 27.3913C4 15.6269 13.3472 6.08494 24.8936 6.0417V6.0417Z" fill="white"/>
</mask>
<g mask="url(#mask0)">
<path fill-rule="evenodd" clip-rule="evenodd" d="M-2.71875 -0.662991H52.6638V70.8053H-2.71875V-0.662991Z" fill="white"/>
</g>
<mask id="mask1" mask-type="alpha" maskUnits="userSpaceOnUse" x="8" y="11" width="34" height="33">
<path fill-rule="evenodd" clip-rule="evenodd" d="M25.2932 44C34.4059 44 41.7932 36.6127 41.7932 27.5C41.7932 18.3873 34.4059 11 25.2932 11C16.1805 11 8.79324 18.3873 8.79324 27.5C8.79324 36.6127 16.1805 44 25.2932 44Z" fill="white"/>
</mask>
<g mask="url(#mask1)">
<path fill-rule="evenodd" clip-rule="evenodd" d="M3.12659 3.33333H48.4599V48.6667H3.12659V3.33333Z" fill="#DE1A56"/>
</g>
<path d="M20.9176 23.176L22.5376 22.42V31H20.9176V23.176ZM26.5753 31.18C26.1033 31.18 25.6573 31.122 25.2373 31.006C24.8173 30.89 24.4433 30.716 24.1153 30.484L24.6193 29.116C24.8433 29.332 25.1173 29.502 25.4413 29.626C25.7693 29.75 26.0953 29.812 26.4193 29.812C26.9393 29.812 27.3313 29.69 27.5953 29.446C27.8593 29.198 27.9913 28.872 27.9913 28.468C27.9913 28.02 27.8373 27.71 27.5293 27.538C27.2253 27.366 26.8193 27.28 26.3113 27.28H25.6753V26.092H26.3233C26.7993 26.092 27.1593 25.976 27.4033 25.744C27.6513 25.512 27.7753 25.204 27.7753 24.82C27.7753 24.44 27.6633 24.176 27.4393 24.028C27.2153 23.876 26.8753 23.8 26.4193 23.8C26.2553 23.8 26.0613 23.83 25.8373 23.89C25.6173 23.946 25.4013 24.03 25.1893 24.142C24.9773 24.25 24.8033 24.38 24.6673 24.532L24.0673 23.26C24.3393 23.02 24.7053 22.822 25.1653 22.666C25.6293 22.51 26.1553 22.432 26.7433 22.432C27.2953 22.432 27.7753 22.516 28.1833 22.684C28.5913 22.852 28.9053 23.098 29.1253 23.422C29.3453 23.742 29.4553 24.128 29.4553 24.58C29.4553 24.888 29.3993 25.19 29.2873 25.486C29.1793 25.782 29.0193 26.038 28.8073 26.254C28.5953 26.466 28.3473 26.608 28.0633 26.68C28.3913 26.68 28.6773 26.772 28.9213 26.956C29.1693 27.14 29.3573 27.382 29.4853 27.682C29.6173 27.982 29.6833 28.304 29.6833 28.648C29.6833 29.16 29.5453 29.608 29.2693 29.992C28.9933 30.376 28.6193 30.67 28.1473 30.874C27.6753 31.078 27.1513 31.18 26.5753 31.18Z" fill="white"/>
<defs>
<filter id="filter0_d" x="0" y="0.0417023" width="49.945" height="66.059" filterUnits="userSpaceOnUse" color-interpolation-filters="sRGB">
<feFlood flood-opacity="0" result="BackgroundImageFix"/>
<feColorMatrix in="SourceAlpha" type="matrix" values="0 0 0 0 0 0 0 0 0 0 0 0 0 0 0 0 0 0 127 0"/>
<feOffset dy="-2"/>
<feGaussianBlur stdDeviation="2"/>
<feColorMatrix type="matrix" values="0 0 0 0 0 0 0 0 0 0 0 0 0 0 0 0 0 0 0.119728 0"/>
<feBlend mode="normal" in2="BackgroundImageFix" result="effect1_dropShadow"/>
<feBlend mode="normal" in="SourceGraphic" in2="effect1_dropShadow" result="shape"/>
</filter>
</defs>
</svg>
