<svg width="51" height="67" viewBox="0 0 51 67" fill="none" xmlns="http://www.w3.org/2000/svg">
<g filter="url(#filter0_d)">
<path fill-rule="evenodd" clip-rule="evenodd" d="M25.6869 6H25.8445C37.3773 6.04318 46.7159 15.5623 46.7382 27.3073V27.3873C46.7067 42.1074 28.2084 64.0275 25.7709 64.059H25.7605C23.3192 64.0269 4.79324 41.3128 4.79324 27.3496C4.79324 15.5852 14.1404 6.04323 25.6869 6V6Z" fill="black" fill-opacity="0.01"/>
</g>
<mask id="mask0" mask-type="alpha" maskUnits="userSpaceOnUse" x="4" y="6" width="43" height="59">
<path fill-rule="evenodd" clip-rule="evenodd" d="M25.6869 6H25.8445C37.3773 6.04318 46.7159 15.5623 46.7382 27.3073V27.3873C46.7067 42.1074 28.2084 64.0275 25.7709 64.059H25.7605C23.3192 64.0269 4.79324 41.3128 4.79324 27.3496C4.79324 15.5852 14.1404 6.04323 25.6869 6V6Z" fill="white"/>
</mask>
<g mask="url(#mask0)">
<path fill-rule="evenodd" clip-rule="evenodd" d="M-1.92551 -0.704693H53.457V70.7636H-1.92551V-0.704693Z" fill="white"/>
</g>
<mask id="mask1" mask-type="alpha" maskUnits="userSpaceOnUse" x="9" y="10" width="34" height="34">
<path fill-rule="evenodd" clip-rule="evenodd" d="M26.0865 43.9583C35.1992 43.9583 42.5865 36.571 42.5865 27.4583C42.5865 18.3456 35.1992 10.9583 26.0865 10.9583C16.9738 10.9583 9.58649 18.3456 9.58649 27.4583C9.58649 36.571 16.9738 43.9583 26.0865 43.9583Z" fill="white"/>
</mask>
<g mask="url(#mask1)">
<path fill-rule="evenodd" clip-rule="evenodd" d="M3.91982 3.29163H49.2531V48.625H3.91982V3.29163Z" fill="#DE1A56"/>
</g>
<path d="M25.3003 29.632V31H19.9123C19.8563 30.704 19.8283 30.424 19.8283 30.16C19.8283 29.664 19.9083 29.236 20.0683 28.876C20.2283 28.516 20.4623 28.196 20.7703 27.916C21.0823 27.636 21.4923 27.348 22.0003 27.052C22.3523 26.844 22.6403 26.656 22.8643 26.488C23.0923 26.32 23.2863 26.108 23.4463 25.852C23.6103 25.596 23.6923 25.3 23.6923 24.964C23.6923 24.748 23.6483 24.55 23.5603 24.37C23.4723 24.186 23.3363 24.04 23.1523 23.932C22.9683 23.82 22.7403 23.764 22.4683 23.764C22.0363 23.764 21.6843 23.904 21.4123 24.184C21.1443 24.464 20.9723 24.84 20.8963 25.312L19.6243 24.712C19.6883 24.292 19.8523 23.91 20.1163 23.566C20.3803 23.218 20.7243 22.942 21.1483 22.738C21.5723 22.534 22.0483 22.432 22.5763 22.432C23.0763 22.432 23.5283 22.526 23.9323 22.714C24.3403 22.902 24.6623 23.178 24.8983 23.542C25.1343 23.902 25.2523 24.328 25.2523 24.82C25.2523 25.324 25.1603 25.766 24.9763 26.146C24.7963 26.526 24.5303 26.87 24.1783 27.178C23.8303 27.482 23.3683 27.808 22.7923 28.156C22.4723 28.348 22.2283 28.504 22.0603 28.624C21.8963 28.744 21.7543 28.886 21.6343 29.05C21.5183 29.21 21.4403 29.404 21.4003 29.632H25.3003ZM29.3628 31.216C28.3188 31.216 27.5488 30.826 27.0528 30.046C26.5608 29.266 26.3148 28.196 26.3148 26.836C26.3148 25.364 26.5768 24.262 27.1008 23.53C27.6248 22.798 28.3788 22.432 29.3628 22.432C30.3468 22.432 31.1008 22.798 31.6248 23.53C32.1488 24.262 32.4108 25.364 32.4108 26.836C32.4108 28.196 32.1628 29.266 31.6668 30.046C31.1748 30.826 30.4068 31.216 29.3628 31.216ZM29.3748 29.932C30.2788 29.932 30.7308 28.896 30.7308 26.824C30.7308 24.736 30.2788 23.692 29.3748 23.692C28.4548 23.692 27.9948 24.736 27.9948 26.824C27.9948 27.776 28.1028 28.532 28.3188 29.092C28.5348 29.652 28.8868 29.932 29.3748 29.932Z" fill="white"/>
<defs>
<filter id="filter0_d" x="0.793243" y="0" width="49.945" height="66.059" filterUnits="userSpaceOnUse" color-interpolation-filters="sRGB">
<feFlood flood-opacity="0" result="BackgroundImageFix"/>
<feColorMatrix in="SourceAlpha" type="matrix" values="0 0 0 0 0 0 0 0 0 0 0 0 0 0 0 0 0 0 127 0"/>
<feOffset dy="-2"/>
<feGaussianBlur stdDeviation="2"/>
<feColorMatrix type="matrix" values="0 0 0 0 0 0 0 0 0 0 0 0 0 0 0 0 0 0 0.119728 0"/>
<feBlend mode="normal" in2="BackgroundImageFix" result="effect1_dropShadow"/>
<feBlend mode="normal" in="SourceGraphic" in2="effect1_dropShadow" result="shape"/>
</filter>
</defs>
</svg>
