<svg width="51" height="67" viewBox="0 0 51 67" fill="none" xmlns="http://www.w3.org/2000/svg">
<g filter="url(#filter0_d)">
<path fill-rule="evenodd" clip-rule="evenodd" d="M25.6869 6H25.8445C37.3773 6.04318 46.7159 15.5623 46.7382 27.3073V27.3873C46.7067 42.1074 28.2084 64.0275 25.7709 64.059H25.7605C23.3192 64.0269 4.79324 41.3128 4.79324 27.3496C4.79324 15.5852 14.1404 6.04323 25.6869 6V6Z" fill="black" fill-opacity="0.01"/>
</g>
<mask id="mask0" mask-type="alpha" maskUnits="userSpaceOnUse" x="4" y="6" width="43" height="59">
<path fill-rule="evenodd" clip-rule="evenodd" d="M25.6869 6H25.8445C37.3773 6.04318 46.7159 15.5623 46.7382 27.3073V27.3873C46.7067 42.1074 28.2084 64.0275 25.7709 64.059H25.7605C23.3192 64.0269 4.79324 41.3128 4.79324 27.3496C4.79324 15.5852 14.1404 6.04323 25.6869 6V6Z" fill="white"/>
</mask>
<g mask="url(#mask0)">
<path fill-rule="evenodd" clip-rule="evenodd" d="M-1.92551 -0.704693H53.457V70.7636H-1.92551V-0.704693Z" fill="white"/>
</g>
<mask id="mask1" mask-type="alpha" maskUnits="userSpaceOnUse" x="9" y="10" width="34" height="34">
<path fill-rule="evenodd" clip-rule="evenodd" d="M26.0865 43.9583C35.1992 43.9583 42.5865 36.571 42.5865 27.4583C42.5865 18.3456 35.1992 10.9583 26.0865 10.9583C16.9738 10.9583 9.58649 18.3456 9.58649 27.4583C9.58649 36.571 16.9738 43.9583 26.0865 43.9583Z" fill="white"/>
</mask>
<g mask="url(#mask1)">
<path fill-rule="evenodd" clip-rule="evenodd" d="M3.91982 3.29163H49.2531V48.625H3.91982V3.29163Z" fill="#DE1A56"/>
</g>
<path d="M21.8667 28.632V30H16.4787C16.4227 29.704 16.3947 29.424 16.3947 29.16C16.3947 28.664 16.4747 28.236 16.6347 27.876C16.7947 27.516 17.0287 27.196 17.3367 26.916C17.6487 26.636 18.0587 26.348 18.5667 26.052C18.9187 25.844 19.2067 25.656 19.4307 25.488C19.6587 25.32 19.8527 25.108 20.0127 24.852C20.1767 24.596 20.2587 24.3 20.2587 23.964C20.2587 23.748 20.2147 23.55 20.1267 23.37C20.0387 23.186 19.9027 23.04 19.7187 22.932C19.5347 22.82 19.3067 22.764 19.0347 22.764C18.6027 22.764 18.2507 22.904 17.9787 23.184C17.7107 23.464 17.5387 23.84 17.4627 24.312L16.1907 23.712C16.2547 23.292 16.4187 22.91 16.6827 22.566C16.9467 22.218 17.2907 21.942 17.7147 21.738C18.1387 21.534 18.6147 21.432 19.1427 21.432C19.6427 21.432 20.0947 21.526 20.4987 21.714C20.9067 21.902 21.2287 22.178 21.4647 22.542C21.7007 22.902 21.8187 23.328 21.8187 23.82C21.8187 24.324 21.7267 24.766 21.5427 25.146C21.3627 25.526 21.0967 25.87 20.7447 26.178C20.3967 26.482 19.9347 26.808 19.3587 27.156C19.0387 27.348 18.7947 27.504 18.6267 27.624C18.4627 27.744 18.3207 27.886 18.2007 28.05C18.0847 28.21 18.0067 28.404 17.9667 28.632H21.8667ZM25.9292 30.216C24.8852 30.216 24.1152 29.826 23.6192 29.046C23.1272 28.266 22.8812 27.196 22.8812 25.836C22.8812 24.364 23.1432 23.262 23.6672 22.53C24.1912 21.798 24.9452 21.432 25.9292 21.432C26.9132 21.432 27.6672 21.798 28.1912 22.53C28.7152 23.262 28.9772 24.364 28.9772 25.836C28.9772 27.196 28.7292 28.266 28.2332 29.046C27.7412 29.826 26.9732 30.216 25.9292 30.216ZM25.9412 28.932C26.8452 28.932 27.2972 27.896 27.2972 25.824C27.2972 23.736 26.8452 22.692 25.9412 22.692C25.0212 22.692 24.5612 23.736 24.5612 25.824C24.5612 26.776 24.6692 27.532 24.8852 28.092C25.1012 28.652 25.4532 28.932 25.9412 28.932ZM35.7822 27.048H33.4542V29.472H32.1582V27.048H29.9142V25.872H32.1582V23.472H33.4542V25.872H35.7822V27.048Z" fill="white"/>
<defs>
<filter id="filter0_d" x="0.793243" y="0" width="49.945" height="66.059" filterUnits="userSpaceOnUse" color-interpolation-filters="sRGB">
<feFlood flood-opacity="0" result="BackgroundImageFix"/>
<feColorMatrix in="SourceAlpha" type="matrix" values="0 0 0 0 0 0 0 0 0 0 0 0 0 0 0 0 0 0 127 0"/>
<feOffset dy="-2"/>
<feGaussianBlur stdDeviation="2"/>
<feColorMatrix type="matrix" values="0 0 0 0 0 0 0 0 0 0 0 0 0 0 0 0 0 0 0.119728 0"/>
<feBlend mode="normal" in2="BackgroundImageFix" result="effect1_dropShadow"/>
<feBlend mode="normal" in="SourceGraphic" in2="effect1_dropShadow" result="shape"/>
</filter>
</defs>
</svg>
