<svg width="913" height="138" viewBox="0 0 913 138" fill="none" xmlns="http://www.w3.org/2000/svg">
<mask id="mask0" mask-type="alpha" maskUnits="userSpaceOnUse" x="470" y="0" width="443" height="138">
<rect x="470" width="443" height="138" fill="white"/>
</mask>
<g mask="url(#mask0)">
<path d="M482.148 87.7728C482.148 87.7728 492.089 88.8428 502.65 87.7728C513.212 86.7028 522.838 73.3338 522.838 73.3338C522.838 73.3338 517.758 71.3278 506.662 70.9268C495.565 70.5258 484.259 73.2308 484.259 73.2308" stroke="#2F3059"/>
<path fill-rule="evenodd" clip-rule="evenodd" d="M909.209 142.452C907.47 139.51 905.732 130.151 907.736 127.745C909.743 125.339 907.736 116.783 907.736 116.783L905.199 113.44L906.936 111.301C906.936 111.301 903.193 95.7935 878.594 87.1035C853.994 78.4125 809.074 71.8625 809.074 71.8625L800.783 70.6595L794.5 69.8575C794.5 69.8575 768.03 55.2845 745.301 45.3915C722.574 35.4975 709.473 28.5455 662.279 27.6105C615.085 26.6745 586.074 31.6215 554.389 43.9215C522.704 56.2215 520.564 57.5575 520.564 57.5575L490.752 60.2315C490.752 60.2315 487.943 60.2325 487.943 63.3065C487.943 66.3815 485.537 70.6595 483.532 74.6705C481.527 78.6815 481.793 86.8365 482.73 93.3875C483.665 99.9375 483.532 100.74 483.532 100.74L474.173 104.75C474.173 104.75 471.5 105.419 471.5 111.034V132.024C471.5 132.024 473.906 140.849 484.868 143.789C495.832 146.728 515.618 151.678 515.618 151.678H516.533V144.257C516.533 122.437 534.221 104.75 556.039 104.75C577.857 104.75 595.545 122.437 595.545 144.257V155.082L600.112 155.287L714.687 156.89L779.929 157.827C779.929 157.827 785.275 156.49 786.745 154.618C787.16 154.093 787.448 153.726 787.66 153.453V146.143C787.66 124.324 805.35 106.638 827.168 106.638C848.985 106.638 866.674 124.324 866.674 146.143V155.42L866.695 155.421C866.695 155.421 866.56 156.89 868.565 157.827C868.565 157.827 887.818 157.56 890.092 156.624C892.364 155.687 893.165 154.887 893.165 154.887C893.165 154.887 905.063 152.747 909.209 150.074C913.353 147.398 910.945 145.392 909.209 142.452Z" fill="#FAF9FB" stroke="#2F3059" stroke-width="3"/>
<path fill-rule="evenodd" clip-rule="evenodd" d="M588.079 145.46C588.079 163.219 573.684 177.613 555.926 177.613C538.168 177.613 523.773 163.219 523.773 145.46C523.773 127.702 538.168 113.307 555.926 113.307C573.684 113.307 588.079 127.702 588.079 145.46Z" fill="#FAF9FB" stroke="#2F3059"/>
<path fill-rule="evenodd" clip-rule="evenodd" d="M859.752 146.277C859.752 164.033 845.356 178.43 827.599 178.43C809.84 178.43 795.445 164.033 795.445 146.277C795.445 128.519 809.84 114.124 827.599 114.124C845.356 114.124 859.752 128.519 859.752 146.277Z" stroke="#2F3059"/>
<path d="M887.496 90.9634C887.496 90.9634 882.87 92.1844 886.213 100.072C889.556 107.959 905.801 108.399 905.801 108.399" stroke="#2F3059"/>
</g>
<mask id="mask1" mask-type="alpha" maskUnits="userSpaceOnUse" x="0" y="0" width="435" height="138">
<rect width="435" height="138" fill="white"/>
</mask>
<g mask="url(#mask1)">
<path d="M349.736 77.9763L349.609 79.4709L349.735 77.9763C347.064 77.75 343.143 77.4595 339.897 77.226C338.272 77.1091 336.814 77.0063 335.762 76.9328C335.236 76.896 334.812 76.8665 334.519 76.8462L334.182 76.8229L334.094 76.8169L334.072 76.8154L334.066 76.815L334.064 76.8149L334.064 76.8149C334.064 76.8148 334.064 76.8148 333.961 78.3113L334.064 76.8148L334.013 76.8113H333.961H322.348L322.318 76.7949C322.079 76.6664 321.727 76.4772 321.273 76.2342C320.365 75.7482 319.05 75.0469 317.419 74.1849C314.159 72.4611 309.637 70.0941 304.591 67.5211C294.517 62.3845 282.29 56.3942 273.845 53.0788C256.977 46.4561 241.078 42.4354 218.592 39.5872C196 36.7255 158.765 40.1674 142.527 42.4237L142.733 43.9094L142.527 42.4237C126.232 44.6886 107.349 48.3788 84.9271 55.8876C78.2235 58.1323 72.2759 60.2116 67.0299 62.0457C63.5653 63.2569 60.4068 64.3612 57.5386 65.3355C50.2524 67.8104 44.7587 69.4746 40.4188 70.1286L40.6423 71.6118L40.4187 70.1286C31.4457 71.4808 23.8258 72.5738 17.8769 73.3449C14.9104 73.7295 13.0932 74.2227 12.0371 74.9858C11.4311 75.4237 11.0492 75.9645 10.8676 76.5865C10.7277 77.0656 10.7318 77.5482 10.7339 77.7914C10.7341 77.8173 10.7343 77.8405 10.7343 77.8606V82.1066C10.5403 82.3552 10.3254 82.6818 10.1192 83.1002C9.62051 84.1125 9.19529 85.6162 9.19529 87.7815C9.19529 89.9093 9.54219 91.6599 9.89427 92.8894C10.0704 93.5046 10.2485 93.9915 10.3866 94.3326C10.4083 94.3861 10.429 94.4361 10.4486 94.4824C10.4388 94.5738 10.4263 94.682 10.4104 94.8055C10.3524 95.2572 10.2498 95.9111 10.0731 96.6967C9.71819 98.275 9.07279 100.346 7.91742 102.37C6.69969 104.503 5.76642 105.803 5.16078 106.551C4.8583 106.925 4.63883 107.159 4.50791 107.29C4.4425 107.355 4.39937 107.394 4.37921 107.412C4.37615 107.415 4.37362 107.417 4.37162 107.419L3.80859 107.856V108.59V123.552C3.76451 123.623 3.71566 123.703 3.66292 123.791C3.43339 124.172 3.12612 124.705 2.81712 125.313C2.50985 125.918 2.18954 126.618 1.94327 127.329C1.70327 128.022 1.5 128.82 1.5 129.593C1.5 130.809 1.78006 133.471 2.60259 136.493C3.42545 139.516 4.82911 143.042 7.16404 145.878L7.16413 145.879C9.52834 148.75 12.0051 150.28 15.7954 151.28C19.0727 152.144 23.424 152.632 29.595 153.324C30.2908 153.402 31.0096 153.482 31.7526 153.566C39.142 154.402 44.3654 155.124 47.7357 155.637C49.4208 155.893 50.6425 156.096 51.44 156.235C51.8387 156.305 52.1314 156.358 52.3228 156.394C52.385 156.405 52.4365 156.415 52.4774 156.423C52.4996 156.427 52.5186 156.431 52.5347 156.434L52.5848 156.444L52.5962 156.446L52.5984 156.446L52.5986 156.446L52.5987 156.446L54.3837 156.801L54.3909 154.981V154.981L54.3909 154.979L54.3909 154.971L54.3911 154.938L54.3922 154.805C54.3934 154.686 54.3954 154.511 54.399 154.284C54.4063 153.83 54.4199 153.171 54.4452 152.356C54.4958 150.725 54.593 148.472 54.7793 145.987C55.1565 140.956 55.8859 135.181 57.2428 131.606C58.645 127.912 61.2329 122.505 66.1494 118.026C71.032 113.578 78.3017 109.961 89.2511 109.961C100.122 109.961 108.204 114.388 113.799 119.924C119.432 125.496 122.498 132.151 123.304 136.44C124.151 140.95 124.564 145.995 124.763 149.937C124.862 151.902 124.907 153.583 124.928 154.77C124.938 155.364 124.943 155.834 124.944 156.154C124.945 156.315 124.945 156.438 124.945 156.52L124.945 156.612L124.945 156.635L124.945 156.64L124.945 156.641L124.944 156.72L124.952 156.798L126.445 156.649C124.952 156.798 124.952 156.799 124.952 156.8L124.952 156.801L124.953 156.805L124.954 156.813L124.956 156.83C124.957 156.843 124.959 156.858 124.961 156.875C124.966 156.909 124.972 156.95 124.981 156.998C124.998 157.095 125.025 157.22 125.067 157.366C125.15 157.653 125.298 158.044 125.564 158.446C126.141 159.316 127.188 160.083 128.818 160.083C129.11 160.083 130.133 160.071 131.775 160.051C142.628 159.921 180.542 159.468 213.502 160.083C244.782 160.666 281.896 161.075 299.879 161.273C303.725 161.315 306.697 161.348 308.548 161.371L319.066 161.5L319.482 161.505L319.842 161.294L319.084 160C319.842 161.294 319.844 161.293 319.846 161.292L319.851 161.289L319.859 161.284L319.876 161.274C319.888 161.266 319.9 161.259 319.911 161.251C319.918 161.247 319.926 161.242 319.933 161.237C319.949 161.226 319.965 161.214 319.982 161.202C320.03 161.167 320.078 161.128 320.126 161.084C320.222 160.997 320.316 160.893 320.406 160.773C320.585 160.532 320.747 160.226 320.884 159.837C321.153 159.071 321.353 157.903 321.353 156.07C321.353 155.946 321.353 155.806 321.353 155.651C321.35 153.631 321.342 149.109 321.804 144.096C322.307 138.641 323.349 132.854 325.403 129.086C327.607 125.042 330.573 119.869 335.588 115.685C340.564 111.534 347.645 108.286 358.202 108.286C379.074 108.286 386.968 123.199 389.457 129.201C391.898 135.087 392.357 143.648 392.357 148.533V156.585V158.049L393.82 158.085L393.857 156.585C393.82 158.085 393.82 158.085 393.82 158.085L393.821 158.085L393.823 158.085L393.829 158.085L393.854 158.086L393.947 158.088L394.077 158.09C394.141 158.091 394.215 158.093 394.301 158.094C394.608 158.099 395.054 158.105 395.61 158.109C396.723 158.116 398.28 158.114 400.059 158.077C403.602 158.004 408.092 157.794 411.721 157.23C415.327 156.67 417.169 156.155 418.811 155.696L418.813 155.695C420.39 155.253 421.753 154.872 424.502 154.531C427.58 154.149 430.225 153.086 432.134 151.808C433.086 151.17 433.891 150.454 434.474 149.705C435.035 148.983 435.5 148.086 435.5 147.115C435.5 145.525 434.536 144.244 433.845 143.506C433.529 143.167 433.216 142.886 432.961 142.674C432.947 142.406 432.93 142.068 432.911 141.679C432.861 140.659 432.797 139.287 432.742 137.875C432.686 136.462 432.638 135.019 432.621 133.853C432.612 133.269 432.611 132.766 432.619 132.377C432.623 132.182 432.629 132.025 432.637 131.906C432.642 131.838 432.646 131.794 432.648 131.771C432.651 131.749 432.652 131.744 432.65 131.753C432.933 130.333 433.267 127.194 432.79 123.901C432.686 123.182 432.555 122.403 432.417 121.583C431.926 118.662 431.347 115.218 431.584 112.12C431.61 111.778 431.642 111.426 431.674 111.075C431.731 110.451 431.787 109.831 431.81 109.281C431.847 108.367 431.808 107.429 431.53 106.461C430.962 104.484 429.507 102.756 426.757 100.691C423.918 98.5604 417.456 95.4681 410.076 92.4718C402.637 89.4512 394.063 86.4491 386.869 84.5287C372.525 80.6987 355.12 78.433 349.736 77.9763Z" fill="#FAF9FB" stroke="#2F3059" stroke-width="3"/>
<path fill-rule="evenodd" clip-rule="evenodd" d="M118 144.5C118 160.241 105.241 173 89.5 173C73.7593 173 61 160.241 61 144.5C61 128.759 73.7593 116 89.5 116C105.241 116 118 128.759 118 144.5Z" fill="#FAF9FB" stroke="#2F3059"/>
<path fill-rule="evenodd" clip-rule="evenodd" d="M387 143C387 159.017 374.017 172 358 172C341.983 172 329 159.017 329 143C329 126.983 341.983 114 358 114C374.017 114 387 126.983 387 143Z" fill="#FAF9FB" stroke="#2F3059"/>
<path fill-rule="evenodd" clip-rule="evenodd" d="M425.998 105.562V110.135C425.998 110.135 426.291 112.081 418.788 110.135C411.285 108.189 399.786 108.773 399.786 108.773L383.611 101.183C383.611 101.183 381.857 99.2369 384.293 97.68L386.729 96.1232C386.729 96.1232 396.863 95.2474 407.972 98.1666C419.08 101.086 425.998 105.562 425.998 105.562Z" stroke="#2F3059"/>
<path d="M12 95C12 95 29.3104 93.7444 34.9056 93.1677C40.5008 92.591 42.9125 88.5542 42.9125 88.5542C42.9125 88.5542 44.3595 87.4969 35.4844 84.3251C26.6093 81.1534 20.6606 80 16.48 80C12.2994 80 12.2994 82.0184 12.2994 82.0184" stroke="#2F3059"/>
</g>
</svg>
