<svg width="266" height="137" viewBox="0 0 266 137" fill="none" xmlns="http://www.w3.org/2000/svg">
<mask id="mask0" mask-type="alpha" maskUnits="userSpaceOnUse" x="-7" y="0" width="273" height="137">
<rect x="-7" width="273" height="137" fill="white"/>
</mask>
<g mask="url(#mask0)">
<path fill-rule="evenodd" clip-rule="evenodd" d="M264.778 133.942C264.778 133.942 264.626 133.538 264.12 133.184C263.615 132.83 263.21 132.78 263.21 132.78C263.21 132.78 263.766 131.667 263.766 130.252C263.766 128.836 263.564 127.672 263.564 127.672C263.564 127.672 264.272 125.649 263.513 124.588C262.756 123.526 262.048 123.677 262.048 123.677C262.048 123.677 261.44 121.553 261.036 119.531C260.632 117.508 259.924 112.553 259.165 111.592C258.406 110.631 255.069 108.761 253.552 106.384C252.035 104.007 250.215 100.366 238.179 95.816C226.145 91.265 212.998 88.939 212.998 88.939C212.998 88.939 212.797 88.18 211.481 88.18C210.167 88.18 210.116 88.838 210.116 88.838C210.116 88.838 208.549 88.231 207.74 87.674C206.93 87.119 206.172 87.371 206.172 87.371C206.172 87.371 203.543 85.602 202.683 85.045C201.823 84.489 200.053 84.742 200.053 84.742C200.053 84.742 190.446 78.826 185.541 75.589C180.636 72.353 169.613 65.88 162.432 61.785C155.252 57.689 143.622 54.2 135.329 52.734C127.036 51.267 106.203 50.509 100.388 50.509H91.4878C91.4878 50.509 88.1508 50.357 82.6388 50.509C77.1278 50.66 68.7338 51.368 68.7338 51.368C68.7338 51.368 66.2558 48.941 63.4748 45.098C60.6938 41.255 57.5588 37.311 57.5588 37.311C57.5588 37.311 63.6268 45.857 65.3458 48.486C67.0648 51.115 66.3568 52.025 66.3568 52.025C66.3568 52.025 58.4178 52.734 50.9848 53.796C43.5518 54.858 43.1978 55.363 43.1978 55.363C43.1978 55.363 42.4898 55.97 42.1868 57.639C41.8828 59.307 41.8828 60.015 41.8828 60.015L22.5158 79.179C22.5158 79.179 20.7968 77.865 19.9378 78.674C19.0778 79.483 20.8978 81.354 20.8978 81.354C20.8978 81.354 14.7288 86.309 12.7068 88.838C10.6838 91.366 10.0768 94.046 10.0768 94.046C10.0768 94.046 7.7008 95.158 5.9308 96.675C4.1608 98.192 4.4648 99.912 4.4648 99.912L4.0598 101.631C4.0598 101.631 4.4138 101.883 0.5198 108.204C-3.3732 114.525 -4.1322 115.789 -4.1322 115.789L-5.4972 132.628C-5.4972 132.628 -4.8902 136.623 -2.7662 140.921C-0.6432 145.218 -0.1372 146.533 -0.1372 146.533L1.6828 146.786L2.0368 146.817V143.449C2.0368 128.564 14.1038 116.497 28.9888 116.497C43.8738 116.497 55.9408 128.564 55.9408 143.449V151.498L58.1648 151.691C58.1648 151.691 75.9648 151.589 97.2018 151.691C118.44 151.792 167.287 151.287 175.377 151.691C183.467 152.095 188.423 152.297 188.423 152.297L189.333 152.288V143.753C189.333 128.867 201.4 116.801 216.285 116.801C231.17 116.801 243.236 128.867 243.236 143.753V151.664C245.021 151.423 258.35 149.611 260.379 148.809C262.552 147.95 263.817 147.292 264.07 144.763C264.323 142.235 263.817 141.224 263.817 141.224C263.817 141.224 264.424 140.313 264.525 138.746C264.626 137.178 264.778 133.942 264.778 133.942Z" fill="#FAF9FB" stroke="#2F3059" stroke-width="3"/>
<path d="M10.0771 94.0458C10.0771 94.0458 12.9591 92.9668 13.3641 94.8038C13.7681 96.6418 9.0491 102.238 6.0151 106.35C2.9811 110.463 1.4301 111.542 1.4301 111.542L-1.3769 111.287" stroke="#2F3059"/>
<path d="M250.832 102.831C250.832 102.831 241.181 98.934 245.63 106.687C250.079 114.441 257.159 117.138 257.159 117.138C257.159 117.138 260.482 115.079 259.824 113.335" stroke="#2F3059"/>
<path fill-rule="evenodd" clip-rule="evenodd" d="M48.9072 144.152C48.9072 155.197 36.2262 164.152 28.9072 164.152C17.8612 164.152 8.9072 155.197 8.9072 144.152C8.9072 133.107 17.8612 124.152 28.9072 124.152C39.9532 124.152 48.9072 133.107 48.9072 144.152Z" fill="#FAF9FB" stroke="#2F3059"/>
<path fill-rule="evenodd" clip-rule="evenodd" d="M236.607 144.152C236.607 155.198 227.654 164.152 216.607 164.152C205.561 164.152 196.607 155.198 196.607 144.152C196.607 133.106 205.561 124.152 216.607 124.152C227.654 124.152 236.607 133.106 236.607 144.152Z" fill="#FAF9FB" stroke="#2F3059"/>
</g>
</svg>
