<svg width="25" height="24" viewBox="0 0 25 24" fill="none" xmlns="http://www.w3.org/2000/svg">
<path fill-rule="evenodd" clip-rule="evenodd" d="M24.9122 7.05166C24.8173 5.12909 24.36 3.42608 22.8932 2.02298C21.432 0.619882 19.6584 0.180743 17.6562 0.0843468C15.5926 -0.0281156 9.40742 -0.0281156 7.34384 0.0843468C5.34718 0.175388 3.57362 0.614526 2.1068 2.01763C0.639989 3.42073 0.188232 5.12373 0.0878416 7.0463C-0.0292805 9.02778 -0.0292805 14.9669 0.0878416 16.9483C0.182655 18.8709 0.639989 20.5739 2.1068 21.977C3.57362 23.3801 5.34161 23.8193 7.34384 23.9157C9.40742 24.0281 15.5926 24.0281 17.6562 23.9157C19.6584 23.8246 21.432 23.3855 22.8932 21.977C24.3544 20.5739 24.8118 18.8709 24.9122 16.9483C25.0293 14.9669 25.0293 9.03314 24.9122 7.05166ZM19.1732 7.03024C19.9986 7.03024 20.6679 6.39295 20.6679 5.595C20.6679 4.80241 19.9986 4.15977 19.1732 4.15977C18.3477 4.15977 17.6785 4.80241 17.6785 5.595C17.6785 6.38759 18.3422 7.03024 19.1732 7.03024ZM12.5028 5.8467C8.95566 5.8467 6.09453 8.594 6.09453 12C6.09453 15.406 8.95566 18.1533 12.5028 18.1533C16.0499 18.1533 18.911 15.406 18.911 12C18.911 8.594 16.0499 5.8467 12.5028 5.8467ZM12.5028 16.0004C10.2105 16.0004 8.33659 14.2064 8.33659 12C8.33659 9.7936 10.205 7.99955 12.5028 7.99955C14.8006 7.99955 16.669 9.7936 16.669 12C16.669 14.2064 14.795 16.0004 12.5028 16.0004ZM19.8703 21.3558C20.969 20.9327 21.8112 20.1241 22.2462 19.0744C22.8059 17.724 22.7748 14.77 22.7546 12.8551C22.7512 12.5374 22.7482 12.2484 22.7482 12C22.7482 11.7516 22.7512 11.4626 22.7546 11.145C22.7748 9.23115 22.8059 6.28059 22.2462 4.92558C21.8056 3.87058 20.9635 3.06192 19.8703 2.6442C18.4595 2.1097 15.3682 2.13817 13.3745 2.15653C13.0511 2.15951 12.7566 2.16222 12.5028 2.16222C12.2441 2.16222 11.9431 2.15929 11.6124 2.15608C9.61922 2.13669 6.54641 2.10679 5.13525 2.6442C4.03653 3.06728 3.19437 3.87593 2.75934 4.92558C2.20269 6.28029 2.23234 9.24861 2.25146 11.1629C2.25456 11.4735 2.25739 11.7563 2.25739 12C2.25739 12.2484 2.25434 12.5374 2.25099 12.855C2.2308 14.7688 2.19966 17.7194 2.75934 19.0744C3.19994 20.1294 4.04211 20.9381 5.13525 21.3558C6.54608 21.8903 9.63739 21.8618 11.631 21.8435C11.9545 21.8405 12.249 21.8378 12.5028 21.8378C12.7615 21.8378 13.0625 21.8407 13.3932 21.8439C15.3864 21.8633 18.4592 21.8932 19.8703 21.3558Z" fill="white"/>
</svg>
