<svg width="25" height="31" viewBox="0 0 25 31" fill="none" xmlns="http://www.w3.org/2000/svg">
<path d="M20.7733 16.2109C20.804 13.8361 22.0526 11.6424 24.0816 10.3986C22.7958 8.56741 20.7193 7.44804 18.4786 7.37813C16.1212 7.13138 13.8358 8.78476 12.6344 8.78476C11.4099 8.78476 9.56032 7.40263 7.56861 7.44349C4.94806 7.52791 2.56421 8.97759 1.28926 11.2621C-1.42574 15.9494 0.59941 22.8382 3.2002 26.6271C4.50144 28.4824 6.0222 30.5548 8.01211 30.4814C9.95935 30.4008 10.6866 29.2432 13.0371 29.2432C15.3658 29.2432 16.0481 30.4814 18.0783 30.4346C20.1678 30.4008 21.4843 28.5711 22.7399 26.6982C23.6748 25.3762 24.3943 23.9152 24.8715 22.3691C22.3899 21.3225 20.7762 18.8977 20.7733 16.2109Z" fill="white"/>
<path d="M16.9385 4.88639C18.0778 3.52264 18.6391 1.76976 18.5032 0C16.7626 0.182289 15.1548 1.01179 14.0002 2.32322C12.86 3.61712 12.2824 5.3099 12.3945 7.0287C14.1584 7.0468 15.8332 6.25721 16.9385 4.88639Z" fill="white"/>
</svg>
