<svg width="143" height="47" viewBox="0 0 143 47" fill="none" xmlns="http://www.w3.org/2000/svg">
<g filter="url(#filter0_i)">
<rect x="90" y="28" width="53" height="19" fill="black" fill-opacity="0.01"/>
</g>
<mask id="mask0" mask-type="alpha" maskUnits="userSpaceOnUse" x="90" y="28" width="53" height="19">
<rect x="90" y="28" width="53" height="19" fill="white"/>
</mask>
<g mask="url(#mask0)">
<mask id="path-3-inside-1" fill="white">
<path fill-rule="evenodd" clip-rule="evenodd" d="M112.629 53C116.525 53 120.004 51.2196 122.298 48.4285C123.738 49.7865 125.679 50.619 127.815 50.619C129.946 50.619 131.884 49.7898 133.323 48.4365C134.299 49.7602 135.869 50.619 137.64 50.619C140.6 50.619 143 48.2206 143 45.2619C143 42.3032 140.6 39.9048 137.64 39.9048C136.893 39.9048 136.181 40.0577 135.535 40.3341C134.561 36.9908 131.473 34.5476 127.815 34.5476C126.466 34.5476 125.195 34.8794 124.079 35.4658C122.142 31.0693 117.744 28 112.629 28C106.821 28 101.938 31.9576 100.531 37.3221C99.7468 37.0667 98.9092 36.9286 98.0393 36.9286C93.5993 36.9286 90 40.5263 90 44.9643C90 49.4023 93.5993 53 98.0393 53C100.618 53 102.914 51.7862 104.385 49.899C106.586 51.8296 109.471 53 112.629 53Z"/>
</mask>
<path d="M122.298 48.4285L123.67 46.9736L122.112 45.504L120.753 47.1587L122.298 48.4285ZM133.323 48.4365L134.933 47.2498L133.595 45.4349L131.953 46.9797L133.323 48.4365ZM135.535 40.3341L133.614 40.8931L134.245 43.0603L136.321 42.1731L135.535 40.3341ZM124.079 35.4658L122.249 36.2724L123.113 38.2328L125.01 37.2363L124.079 35.4658ZM100.531 37.3221L99.9122 39.2238L101.928 39.8802L102.466 37.8294L100.531 37.3221ZM104.385 49.899L105.703 48.3954L104.11 46.998L102.807 48.6695L104.385 49.899ZM120.753 47.1587C118.823 49.5072 115.901 51 112.629 51V55C117.148 55 121.186 52.932 123.843 49.6982L120.753 47.1587ZM127.815 48.619C126.209 48.619 124.753 47.9954 123.67 46.9736L120.925 49.8833C122.722 51.5776 125.149 52.619 127.815 52.619V48.619ZM131.953 46.9797C130.87 47.9979 129.417 48.619 127.815 48.619V52.619C130.475 52.619 132.898 51.5817 134.693 49.8933L131.953 46.9797ZM137.64 48.619C136.531 48.619 135.548 48.0839 134.933 47.2498L131.713 49.6232C133.05 51.4365 135.207 52.619 137.64 52.619V48.619ZM141 45.2619C141 47.1152 139.497 48.619 137.64 48.619V52.619C141.704 52.619 145 49.326 145 45.2619H141ZM137.64 41.9048C139.497 41.9048 141 43.4087 141 45.2619H145C145 41.1978 141.704 37.9048 137.64 37.9048V41.9048ZM136.321 42.1731C136.723 42.001 137.168 41.9048 137.64 41.9048V37.9048C136.618 37.9048 135.639 38.1144 134.749 38.495L136.321 42.1731ZM127.815 36.5476C130.561 36.5476 132.883 38.3811 133.614 40.8931L137.455 39.775C136.24 35.6005 132.386 32.5476 127.815 32.5476V36.5476ZM125.01 37.2363C125.846 36.7971 126.798 36.5476 127.815 36.5476V32.5476C126.134 32.5476 124.545 32.9618 123.149 33.6954L125.01 37.2363ZM112.629 30C116.923 30 120.62 32.5753 122.249 36.2724L125.909 34.6593C123.664 29.5634 118.565 26 112.629 26V30ZM102.466 37.8294C103.647 33.3231 107.752 30 112.629 30V26C105.89 26 100.228 30.5922 98.5967 36.8148L102.466 37.8294ZM98.0393 38.9286C98.6963 38.9286 99.3251 39.0327 99.9122 39.2238L101.15 35.4203C100.168 35.1006 99.122 34.9286 98.0393 34.9286V38.9286ZM92 44.9643C92 41.6317 94.7031 38.9286 98.0393 38.9286V34.9286C92.4956 34.9286 88 39.4209 88 44.9643H92ZM98.0393 51C94.7031 51 92 48.2969 92 44.9643H88C88 50.5077 92.4956 55 98.0393 55V51ZM102.807 48.6695C101.699 50.0913 99.976 51 98.0393 51V55C101.261 55 104.128 53.4812 105.962 51.1286L102.807 48.6695ZM112.629 51C109.974 51 107.554 50.0182 105.703 48.3954L103.066 51.4026C105.618 53.641 108.967 55 112.629 55V51Z" fill="#D6CFE1" mask="url(#path-3-inside-1)"/>
</g>
<g filter="url(#filter1_i)">
<rect width="89" height="32" fill="black" fill-opacity="0.01"/>
</g>
<mask id="mask1" mask-type="alpha" maskUnits="userSpaceOnUse" x="0" y="0" width="89" height="32">
<rect width="89" height="32" fill="white"/>
</mask>
<g mask="url(#mask1)">
<mask id="path-7-inside-2" fill="white">
<path fill-rule="evenodd" clip-rule="evenodd" d="M38 42C44.5416 42 50.3846 39.0089 54.236 34.3198C56.6536 36.6014 59.9135 38 63.5 38C67.0795 38 70.3336 36.6069 72.7497 34.3333C74.3884 36.5572 77.0257 38 80 38C84.9706 38 89 33.9706 89 29C89 24.0294 84.9706 20 80 20C78.7447 20 77.5495 20.257 76.464 20.7212C74.8296 15.1045 69.6441 11 63.5 11C61.2357 11 59.1016 11.5575 57.2274 12.5426C53.9739 5.15648 46.5891 0 38 0C28.2469 0 20.0467 6.64881 17.6847 15.6611C16.3672 15.232 14.9607 15 13.5 15C6.04416 15 0 21.0442 0 28.5C0 35.9558 6.04416 42 13.5 42C17.8306 42 21.685 39.9609 24.1553 36.7904C27.8515 40.0337 32.6961 42 38 42Z"/>
</mask>
<path d="M54.236 34.3198L55.6087 32.8653L54.0504 31.3947L52.6905 33.0504L54.236 34.3198ZM72.7497 34.3333L74.3598 33.1469L73.0218 31.331L71.3791 32.8768L72.7497 34.3333ZM76.464 20.7212L74.5437 21.28L75.1745 23.4479L77.2504 22.5601L76.464 20.7212ZM57.2274 12.5426L55.3971 13.3489L56.2611 15.3101L58.158 14.3129L57.2274 12.5426ZM17.6847 15.6611L17.0653 17.5628L19.0817 18.2196L19.6193 16.1682L17.6847 15.6611ZM24.1553 36.7904L25.4744 35.2871L23.8808 33.8887L22.5777 35.5611L24.1553 36.7904ZM52.6905 33.0504C49.2027 37.2969 43.9179 40 38 40V44C45.1654 44 51.5665 40.721 55.7815 35.5892L52.6905 33.0504ZM63.5 36C60.4439 36 57.6699 34.8105 55.6087 32.8653L52.8633 35.7744C55.6373 38.3923 59.3831 40 63.5 40V36ZM71.3791 32.8768C69.3192 34.8152 66.5501 36 63.5 36V40C67.6088 40 71.348 38.3986 74.1203 35.7898L71.3791 32.8768ZM80 36C77.688 36 75.6377 34.8812 74.3598 33.1469L71.1396 35.5197C73.139 38.2332 76.3633 40 80 40V36ZM87 29C87 32.866 83.866 36 80 36V40C86.0751 40 91 35.0751 91 29H87ZM80 22C83.866 22 87 25.134 87 29H91C91 22.9249 86.0751 18 80 18V22ZM77.2504 22.5601C78.0919 22.2002 79.02 22 80 22V18C78.4695 18 77.007 18.3137 75.6776 18.8823L77.2504 22.5601ZM63.5 13C68.731 13 73.151 16.4942 74.5437 21.28L78.3844 20.1624C76.5082 13.7149 70.5573 9 63.5 9V13ZM58.158 14.3129C59.7521 13.475 61.5676 13 63.5 13V9C60.9038 9 58.4511 9.63991 56.2969 10.7723L58.158 14.3129ZM38 2C45.768 2 52.4516 6.66193 55.3971 13.3489L59.0577 11.7364C55.4962 3.65103 47.4102 -2 38 -2V2ZM19.6193 16.1682C21.7565 8.01362 29.1785 2 38 2V-2C27.3152 -2 18.3368 5.28399 15.75 15.1541L19.6193 16.1682ZM13.5 17C14.7478 17 15.9453 17.198 17.0653 17.5628L18.3041 13.7595C16.789 13.266 15.1736 13 13.5 13V17ZM2 28.5C2 22.1487 7.14873 17 13.5 17V13C4.93959 13 -2 19.9396 -2 28.5H2ZM13.5 40C7.14873 40 2 34.8513 2 28.5H-2C-2 37.0604 4.93959 44 13.5 44V40ZM22.5777 35.5611C20.47 38.2662 17.188 40 13.5 40V44C18.4733 44 22.9 41.6555 25.733 38.0196L22.5777 35.5611ZM38 40C33.1999 40 28.8198 38.2226 25.4744 35.2871L22.8362 38.2937C26.8833 41.8449 32.1924 44 38 44V40Z" fill="#D6CFE1" mask="url(#path-7-inside-2)"/>
</g>
<defs>
<filter id="filter0_i" x="90" y="28" width="53" height="19" filterUnits="userSpaceOnUse" color-interpolation-filters="sRGB">
<feFlood flood-opacity="0" result="BackgroundImageFix"/>
<feBlend mode="normal" in="SourceGraphic" in2="BackgroundImageFix" result="shape"/>
<feColorMatrix in="SourceAlpha" type="matrix" values="0 0 0 0 0 0 0 0 0 0 0 0 0 0 0 0 0 0 127 0" result="hardAlpha"/>
<feOffset dy="-2"/>
<feComposite in2="hardAlpha" operator="arithmetic" k2="-1" k3="1"/>
<feColorMatrix type="matrix" values="0 0 0 0 0.839216 0 0 0 0 0.811765 0 0 0 0 0.882353 0 0 0 1 0"/>
<feBlend mode="normal" in2="shape" result="effect1_innerShadow"/>
</filter>
<filter id="filter1_i" x="0" y="0" width="89" height="32" filterUnits="userSpaceOnUse" color-interpolation-filters="sRGB">
<feFlood flood-opacity="0" result="BackgroundImageFix"/>
<feBlend mode="normal" in="SourceGraphic" in2="BackgroundImageFix" result="shape"/>
<feColorMatrix in="SourceAlpha" type="matrix" values="0 0 0 0 0 0 0 0 0 0 0 0 0 0 0 0 0 0 127 0" result="hardAlpha"/>
<feOffset dy="-2"/>
<feComposite in2="hardAlpha" operator="arithmetic" k2="-1" k3="1"/>
<feColorMatrix type="matrix" values="0 0 0 0 0.839216 0 0 0 0 0.811765 0 0 0 0 0.882353 0 0 0 1 0"/>
<feBlend mode="normal" in2="shape" result="effect1_innerShadow"/>
</filter>
</defs>
</svg>
