<svg width="30" height="32" viewBox="0 0 30 32" fill="none" xmlns="http://www.w3.org/2000/svg">
<path fill-rule="evenodd" clip-rule="evenodd" d="M1.36364 31.545L15.4791 17.3333L20.4545 22.3421L3.67444 31.7359C3.03642 32.0932 2.25498 32.0877 1.62099 31.721L1.36364 31.545ZM13.6364 16L0 29.3333V2.66667L13.6364 16ZM22.1163 10.6667L28.9171 14.2296C29.5854 14.5808 30 15.2387 30 15.9515C30 16.6644 29.5854 17.3222 28.9171 17.6734L21.9305 21.3333L16.3636 16.0878L22.1163 10.6667ZM1.36364 0.575191C1.48223 0.459665 1.61532 0.358746 1.7629 0.273762C2.38618 -0.086094 3.1544 -0.0914055 3.78162 0.259155L20.4545 9.57424L15.3867 14.6667L1.36364 0.575191Z" fill="#2F3059"/>
</svg>
